<?xml version="1.0" encoding="iso-8859-1"?>
<!-- Generator: Adobe Illustrator 16.0.0, SVG Export Plug-In . SVG Version: 6.00 Build 0)  -->
<!DOCTYPE svg PUBLIC "-//W3C//DTD SVG 1.1//EN" "http://www.w3.org/Graphics/SVG/1.1/DTD/svg11.dtd">
<svg xmlns="http://www.w3.org/2000/svg" xmlns:xlink="http://www.w3.org/1999/xlink" version="1.1" id="Capa_1" x="0px" y="0px" width="512px" height="512px" viewBox="0 0 451.373 451.373" style="enable-background:new 0 0 451.373 451.373;" xml:space="preserve">
<g>
	<g id="_x34_6_8_">
		<g>
			<path d="M421.032,284.262c-6.526,0-12.346,3.02-16.146,7.731v-13.82c0-11.45-9.282-20.731-20.733-20.731     c-8.377,0-15.588,4.971-18.858,12.119v-9.826c0-11.451-9.282-20.734-20.733-20.734c-11.452,0-20.734,9.283-20.734,20.734v64.721     H127.546v-64.721c0-11.451-9.282-20.734-20.733-20.734c-11.452,0-20.734,9.283-20.734,20.734v9.826     c-3.271-7.15-10.482-12.119-18.859-12.119c-11.452,0-20.734,9.281-20.734,20.731v13.82c-3.8-4.714-9.619-7.731-16.146-7.731     c-11.451,0-20.733,9.282-20.733,20.733v80.384c0,11.449,9.282,20.732,20.733,20.732c6.527,0,12.346-3.02,16.146-7.732v13.82     c0,11.449,9.282,20.732,20.734,20.732c8.377,0,15.588-4.971,18.859-12.121v9.828c0,11.451,9.282,20.734,20.734,20.734     c11.451,0,20.733-9.283,20.733-20.734V365.92h196.28v64.719c0,11.451,9.282,20.734,20.734,20.734     c11.451,0,20.733-9.283,20.733-20.734v-9.828c3.271,7.15,10.481,12.121,18.858,12.121c11.451,0,20.733-9.283,20.733-20.732     v-13.82c3.8,4.715,9.62,7.732,16.146,7.732c11.452,0,20.734-9.283,20.734-20.732v-80.384     C441.767,293.544,432.484,284.262,421.032,284.262z" fill="#FFFFFF"/>
			<path d="M421.032,45.261c-6.526,0-12.346,3.02-16.146,7.732v-13.82c0-11.451-9.282-20.732-20.733-20.732     c-8.377,0-15.588,4.971-18.858,12.119v-9.826C365.295,9.283,356.013,0,344.562,0c-11.452,0-20.734,9.283-20.734,20.734v64.721     H127.546V20.734C127.546,9.283,118.265,0,106.813,0C95.361,0,86.08,9.283,86.08,20.734v9.826     c-3.271-7.15-10.482-12.119-18.859-12.119c-11.452,0-20.734,9.281-20.734,20.732v13.82c-3.8-4.713-9.619-7.732-16.146-7.732     c-11.451,0-20.733,9.283-20.733,20.734v80.383c0,11.451,9.282,20.734,20.733,20.734c6.527,0,12.346-3.02,16.146-7.734V173.2     c0,11.449,9.282,20.732,20.734,20.732c8.377,0,15.588-4.971,18.859-12.121v9.828c0,11.451,9.282,20.734,20.734,20.734     c11.451,0,20.733-9.283,20.733-20.734V126.92h196.28v64.719c0,11.451,9.282,20.734,20.734,20.734     c11.451,0,20.733-9.283,20.733-20.734v-9.828c3.271,7.15,10.481,12.121,18.858,12.121c11.451,0,20.733-9.283,20.733-20.732     v-13.822c3.8,4.715,9.62,7.734,16.146,7.734c11.452,0,20.734-9.283,20.734-20.734V65.996     C441.767,54.544,432.484,45.261,421.032,45.261z" fill="#FFFFFF"/>
		</g>
	</g>
</g>
<g>
</g>
<g>
</g>
<g>
</g>
<g>
</g>
<g>
</g>
<g>
</g>
<g>
</g>
<g>
</g>
<g>
</g>
<g>
</g>
<g>
</g>
<g>
</g>
<g>
</g>
<g>
</g>
<g>
</g>
</svg>
