<?xml version="1.0" encoding="iso-8859-1"?>
<!-- Generator: Adobe Illustrator 18.1.1, SVG Export Plug-In . SVG Version: 6.00 Build 0)  -->
<svg xmlns="http://www.w3.org/2000/svg" xmlns:xlink="http://www.w3.org/1999/xlink" version="1.1" id="Capa_1" x="0px" y="0px" viewBox="0 0 61.215 61.215" style="enable-background:new 0 0 61.215 61.215;" xml:space="preserve" width="512px" height="512px">
<g>
	<g>
		<path d="M57.101,18.325L33.403,0.854c-1.541-1.139-4.051-1.139-5.592,0L4.114,18.325    c-1.404,1.034-2.423,3.052-2.423,4.796v34.094c0,2.206,1.794,4,4,4h49.833c2.206,0,4-1.794,4-4V23.12    C59.524,21.376,58.505,19.359,57.101,18.325z M5.691,57.215L5.691,57.215V23.12c0-0.472,0.417-1.297,0.796-1.577l23.697-17.47    c0.048-0.034,0.197-0.101,0.423-0.101c0.226,0,0.375,0.066,0.424,0.101l23.697,17.471c0.379,0.28,0.796,1.104,0.796,1.577    l0.003,34.094C55.527,57.215,5.691,57.215,5.691,57.215z" fill="#FFFFFF"/>
		<path d="M22.765,23.426H28c0.346,0,0.626,0.279,0.626,0.625v5.234c0,0.346,0.279,0.626,0.625,0.626h4.381    c0.346,0,0.625-0.28,0.625-0.626v-5.234c0-0.346,0.279-0.625,0.626-0.625h5.233c0.346,0,0.625-0.28,0.625-0.624V18.42    c0-0.346-0.279-0.626-0.625-0.626h-5.234c-0.346,0-0.627-0.279-0.627-0.623v-5.234c0-0.346-0.278-0.626-0.625-0.626h-4.38    c-0.346,0-0.625,0.28-0.625,0.626v5.234c0,0.344-0.28,0.623-0.626,0.623h-5.234c-0.346,0-0.625,0.28-0.625,0.626v4.382    C22.14,23.146,22.419,23.426,22.765,23.426z" fill="#FFFFFF"/>
		<path d="M50.024,36.201c-0.743,0-1.354,0.543-1.476,1.252c-0.024,0-0.024,0.248-0.024,0.248v5.5v1.918    h-2.166c0,0,0-0.392,0-0.875c0-0.482-0.896-0.875-2-0.875H17.817l-0.064-0.08c-0.942-1.164-2.37-1.821-3.729-1.86v-0.513v-4.119    v-4.012c0-1.104-0.896-2-2-2s-2,0.896-2,2v21.168c0,1.104,0.896,2,2,2s2-0.896,2-2v-5.668h2.084c0,0,0,0.517,0,1.151    c0,0.636,0.792,1.591,1.862,1.864c4.672,1.195,13.438,0.475,16.138-0.713c2.206-0.971,7.4-0.571,10.267-0.252    c1.098,0.121,1.983-0.264,1.983-0.899v-1.151h2.166v5.668c0,0.828,0.673,1.5,1.5,1.5c0.828,0,1.5-0.672,1.5-1.5V43.369v-5.668    c0,0,0-0.248-0.024-0.248C51.378,36.744,50.767,36.201,50.024,36.201z" fill="#FFFFFF"/>
	</g>
</g>
<g>
</g>
<g>
</g>
<g>
</g>
<g>
</g>
<g>
</g>
<g>
</g>
<g>
</g>
<g>
</g>
<g>
</g>
<g>
</g>
<g>
</g>
<g>
</g>
<g>
</g>
<g>
</g>
<g>
</g>
</svg>
