<?xml version="1.0" encoding="iso-8859-1"?>
<!-- Generator: Adobe Illustrator 18.0.0, SVG Export Plug-In . SVG Version: 6.00 Build 0)  -->
<!DOCTYPE svg PUBLIC "-//W3C//DTD SVG 1.1//EN" "http://www.w3.org/Graphics/SVG/1.1/DTD/svg11.dtd">
<svg xmlns="http://www.w3.org/2000/svg" xmlns:xlink="http://www.w3.org/1999/xlink" version="1.1" id="Capa_1" x="0px" y="0px" viewBox="0 0 460 460" style="enable-background:new 0 0 460 460;" xml:space="preserve" width="512px" height="512px">
<g id="XMLID_8_">
	<circle id="XMLID_89_" cx="287.576" cy="119.892" r="31.923" fill="#FFFFFF"/>
	<path id="XMLID_965_" d="M447.961,321.871v-83.502c0-17.717-9.301-33.254-23.28-42.019c9.133-2.669,15.808-11.101,15.808-21.097v0   c0-12.141-9.842-21.982-21.982-21.982h-16.12c-2.68,0-5.247,0.481-7.622,1.359l-17.943-93.434   c-1.431-7.45-7.949-12.836-15.535-12.836H99.538c-7.586,0-14.105,5.386-15.535,12.836l-18.245,95.006   c-3.227-1.861-6.969-2.931-10.962-2.931h-16.12c-12.141,0-21.982,9.842-21.982,21.982v0c0,10.44,7.281,19.174,17.04,21.418   c-13.699,8.821-22.78,24.194-22.78,41.698v83.502C4.904,321.871,0,326.775,0,332.824v27.297c0,6.049,4.904,10.954,10.954,10.954   h16.992c0,22.404,18.162,40.565,40.565,40.565s40.565-18.162,40.565-40.565h58.843v20.495c0,5.409,4.385,9.793,9.793,9.793h107.526   c5.409,0,9.793-4.385,9.793-9.793v-20.495h54.808c0,22.404,18.162,40.565,40.565,40.565c22.404,0,40.565-18.162,40.565-40.565   h18.077c6.05,0,10.954-4.904,10.954-10.954v-27.297c0-6.049-4.904-10.954-10.954-10.954H447.961z M380.404,255.263   c13.386,0,24.238,10.852,24.238,24.237c0,13.386-10.852,24.238-24.238,24.238c-13.386,0-24.238-10.852-24.238-24.238   C356.166,266.115,367.018,255.263,380.404,255.263z M287.301,236.844c5.409,0,9.793,4.385,9.793,9.793v46.976   c0,5.409-4.385,9.793-9.793,9.793H175.649c-5.409,0-9.793-4.385-9.793-9.793v-46.976c0-5.409,4.385-9.793,9.793-9.793H287.301z    M86.509,303.739c-13.386,0-24.238-10.852-24.238-24.238c0-13.386,10.852-24.237,24.238-24.237c10.209,0,18.938,6.315,22.509,15.25   c1.111,2.78,1.728,5.811,1.728,8.987c0,3.121-0.596,6.101-1.671,8.841C105.542,297.354,96.774,303.739,86.509,303.739z    M112.608,79.998h235.608l20.894,108.799h-5.175c-4.25-15.423-18.417-26.806-35.143-26.806c-10.276,0-72.386,0-82.691,0   c-16.725,0-30.892,11.383-35.143,26.806H91.714L112.608,79.998z M275.942,382.274h-88.934v-24.338h88.934V382.274z" fill="#FFFFFF"/>
</g>
<g>
</g>
<g>
</g>
<g>
</g>
<g>
</g>
<g>
</g>
<g>
</g>
<g>
</g>
<g>
</g>
<g>
</g>
<g>
</g>
<g>
</g>
<g>
</g>
<g>
</g>
<g>
</g>
<g>
</g>
</svg>
