<?xml version="1.0" ?><svg height="512" id="Layer_1" version="1.1" viewBox="0 0 512 512" width="512" xml:space="preserve" xmlns="http://www.w3.org/2000/svg" xmlns:cc="http://creativecommons.org/ns#" xmlns:dc="http://purl.org/dc/elements/1.1/" xmlns:inkscape="http://www.inkscape.org/namespaces/inkscape" xmlns:rdf="http://www.w3.org/1999/02/22-rdf-syntax-ns#" xmlns:sodipodi="http://sodipodi.sourceforge.net/DTD/sodipodi-0.dtd" xmlns:svg="http://www.w3.org/2000/svg"><defs id="defs12"/><g id="g8145" transform="matrix(1.0523296,0,0,1.0522124,-794.17155,-18.249166)"><path d="m 754.6875,17.34375 0,62.34375 c 0.0832,-4.366398 0.6105,-8.60926 1.53125,-12.71875 C 765.88669,48.706744 778.65943,33.481065 793,22.5625 c 7.73908,-3.353155 16.24651,-5.21875 25.21875,-5.21875 l -63.53125,0 z m 87.59375,0 c -37.06146,20.568007 -42.64485,69.400706 -30.21875,114.75 2.2323,8.13989 4.97515,15.92308 8.125,23.3125 0.0403,0.0947 0.0845,0.18673 0.125,0.28125 0.59688,1.39356 1.21695,2.76215 1.84375,4.125 2.00848,4.36705 4.17173,8.60004 6.46875,12.625 0.57067,0.99996 1.13137,1.96023 1.71875,2.9375 0.34639,0.57631 0.67917,1.1505 1.03125,1.71875 0.48974,0.79042 0.99945,1.56923 1.5,2.34375 0.30569,0.47301 0.62785,0.93928 0.9375,1.40625 0.68069,1.02654 1.36311,2.06572 2.0625,3.0625 0.0216,0.0307 0.0409,0.0631 0.0625,0.0937 0.83947,1.19434 1.69707,2.34983 2.5625,3.5 0.87918,1.16844 1.78258,2.31614 2.6875,3.4375 1.80984,2.24271 3.65599,4.3922 5.5625,6.4375 0.75156,0.80627 1.51558,1.60072 2.28125,2.375 0.20548,0.2078 0.41853,0.41954 0.625,0.625 0.84928,0.84509 1.69686,1.66383 2.5625,2.46875 0.0751,0.0698 0.14352,0.14926 0.21875,0.21875 0.19626,0.1814 0.39668,0.35195 0.59375,0.53125 0.73112,0.66521 1.4767,1.30149 2.21875,1.9375 0.12812,0.10981 0.24656,0.23482 0.375,0.34375 0.101,0.0856 0.2113,0.16495 0.3125,0.25 0.0288,0.0242 0.065,0.0384 0.0937,0.0625 0.88897,0.74582 1.78384,1.48438 2.6875,2.1875 0.86468,0.67279 1.71624,1.33594 2.59375,1.96875 0.14075,0.10144 0.29643,0.18085 0.4375,0.28125 0.14002,0.0997 0.26592,0.21381 0.40625,0.3125 0.33009,0.232 0.6682,0.46123 1,0.6875 0.39259,0.2678 0.79256,0.52155 1.1875,0.78125 0.22039,0.14485 0.43514,0.29518 0.65625,0.4375 0.37221,0.23972 0.75079,0.45503 1.125,0.6875 0.2501,0.15529 0.49903,0.31671 0.75,0.46875 0.46713,0.28309 0.93615,0.57205 1.40625,0.84375 0.78637,0.45425 1.58063,0.89054 2.375,1.3125 0.6355,0.33756 1.26586,0.65218 1.90625,0.96875 0.36397,0.18005 0.72825,0.35806 1.09375,0.53125 0.33097,0.15676 0.66781,0.31765 1,0.46875 0.44685,0.2033 0.89474,0.40078 1.34375,0.59375 0.20733,0.0891 0.41722,0.16316 0.625,0.25 1.12576,0.4705 2.23667,0.93924 3.375,1.34375 0.0411,0.0146 0.0839,0.0167 0.125,0.0312 0.23858,0.0843 0.47965,0.16868 0.71875,0.25 0.28522,0.0971 0.5578,0.18834 0.84375,0.28125 0.2151,0.0699 0.44075,0.12002 0.65625,0.1875 0.66181,0.20724 1.30326,0.40925 1.96875,0.59375 0.66549,0.1845 1.33104,0.36978 2,0.53125 2.67584,0.64588 5.40173,1.10921 8.125,1.375 0.68082,0.0665 1.34798,0.11428 2.03125,0.15625 0.68327,0.042 1.37697,0.0766 2.0625,0.0937 2.59829,0.0652 5.22007,-0.043 7.84375,-0.34375 0.14506,-0.0167 0.29238,-0.0447 0.4375,-0.0625 0.69251,-0.0848 1.36875,-0.17022 2.0625,-0.28125 0.37196,-0.0595 0.75273,-0.12037 1.125,-0.1875 0.327,-0.059 0.64153,-0.12265 0.96875,-0.1875 0.69478,-0.13754 1.36689,-0.3044 2.0625,-0.46875 0.18548,-0.0438 0.37697,-0.0793 0.5625,-0.125 0.50982,-0.12571 1.0211,-0.26596 1.53125,-0.40625 0.69624,-0.19145 1.39708,-0.40616 2.09375,-0.625 8.73025,-2.73738 16.24232,-6.06827 22.625,-9.96875 0.0123,-0.008 0.0189,-0.0237 0.0312,-0.0312 0.71005,-0.43443 1.37974,-0.86445 2.0625,-1.3125 2.0356,-1.33585 3.98198,-2.73338 5.78125,-4.1875 0.0114,-0.009 0.0199,-0.022 0.0312,-0.0312 3.00865,-2.43466 5.68004,-5.03114 8.0625,-7.78125 0.005,-0.006 -0.005,-0.0252 0,-0.0312 0.94901,-1.0963 1.86426,-2.19954 2.71875,-3.34375 0.005,-0.007 -0.005,-0.0244 0,-0.0312 0.3057,-0.40971 0.61241,-0.83426 0.90625,-1.25 0.11978,-0.16974 0.25718,-0.32926 0.375,-0.5 0.40107,-0.58018 0.77762,-1.15839 1.15625,-1.75 0.005,-0.007 -0.005,-0.0238 0,-0.0312 0.37831,-0.59169 0.76878,-1.17828 1.125,-1.78125 0.005,-0.008 -0.005,-0.0234 0,-0.0312 0.20155,-0.34151 0.39919,-0.68617 0.59375,-1.03125 0.15409,-0.27377 0.31902,-0.5365 0.46875,-0.8125 1.00794,-1.85443 1.90254,-3.76579 2.71875,-5.71875 0.005,-0.0124 0.0261,-0.0189 0.0312,-0.0312 0.54309,-1.30179 1.03851,-2.62478 1.5,-3.96875 0.003,-0.009 -0.003,-0.0219 0,-0.0312 0.46093,-1.34424 0.89909,-2.70857 1.28125,-4.09375 0.003,-0.01 -0.003,-0.0216 0,-0.0312 0.57375,-2.08294 1.06508,-4.20306 1.46875,-6.375 0.002,-0.01 -0.002,-0.0213 0,-0.0312 0.40476,-2.18233 0.72595,-4.38839 0.96875,-6.65625 0.16174,-1.51203 0.28166,-3.04529 0.375,-4.59375 0.14001,-2.32269 0.19334,-4.69266 0.1875,-7.09375 -0.008,-3.1912 -0.12966,-6.46033 -0.375,-9.78125 -7.6e-4,-0.0102 7.6e-4,-0.0211 0,-0.0312 -0.37083,-4.98832 -1.00105,-10.12268 -1.84375,-15.375 -0.002,-0.01 0.002,-0.0212 0,-0.0312 -0.56189,-3.49901 -1.22595,-7.0527 -1.96875,-10.65625 -0.002,-0.01 0.002,-0.0214 0,-0.0312 -0.74482,-3.61375 -1.56482,-7.25993 -2.46875,-10.96875 -0.90399,-3.708877 -1.89735,-7.456249 -2.9375,-11.25 -0.2224,-0.80991 -0.44701,-1.630315 -0.6875,-2.4375 -0.24096,-0.808732 -0.49139,-1.600762 -0.75,-2.40625 -0.25861,-0.805488 -0.53672,-1.604519 -0.8125,-2.40625 -0.15711,-0.456739 -0.30619,-0.919611 -0.46875,-1.375 -0.12269,-0.343607 -0.24925,-0.688459 -0.375,-1.03125 -0.2205,-0.601217 -0.45775,-1.213966 -0.6875,-1.8125 -0.0753,-0.196052 -0.14247,-0.398002 -0.21875,-0.59375 -0.0823,-0.21138 -0.16655,-0.413983 -0.25,-0.625 -1.48122,-3.745552 -3.12672,-7.428937 -4.9375,-11.03125 -0.26752,-0.532205 -0.53842,-1.065353 -0.8125,-1.59375 -0.50934,-0.981196 -1.03135,-1.970312 -1.5625,-2.9375 -0.11473,-0.20906 -0.22803,-0.416626 -0.34375,-0.625 -0.70882,-1.276353 -1.44301,-2.532156 -2.1875,-3.78125 -0.86603,-1.453018 -1.77677,-2.868938 -2.6875,-4.28125 -0.72702,-1.127415 -1.46545,-2.244628 -2.21875,-3.34375 -0.19102,-0.278539 -0.36987,-0.567113 -0.5625,-0.84375 -0.15442,-0.221914 -0.31331,-0.435579 -0.46875,-0.65625 -0.80243,-1.139167 -1.60931,-2.2704 -2.4375,-3.375 -0.69836,-0.931435 -1.4098,-1.844726 -2.125,-2.75 -0.30111,-0.381046 -0.60233,-0.748769 -0.90625,-1.125 -0.9094,-1.126325 -1.81719,-2.231255 -2.75,-3.3125 -0.11526,-0.133522 -0.22816,-0.273441 -0.34375,-0.40625 -0.51839,-0.595937 -1.03767,-1.168705 -1.5625,-1.75 -0.54335,-0.601865 -1.07526,-1.195601 -1.625,-1.78125 -0.0914,-0.09739 -0.18967,-0.184316 -0.28125,-0.28125 -0.13234,-0.140078 -0.27356,-0.267133 -0.40625,-0.40625 -0.51018,-0.534927 -1.0162,-1.073316 -1.53125,-1.59375 -0.35321,-0.356887 -0.70717,-0.712594 -1.0625,-1.0625 -0.30381,-0.299233 -0.60097,-0.580968 -0.90625,-0.875 -0.80147,-0.772144 -1.5957,-1.514765 -2.40625,-2.25 -0.0939,-0.08514 -0.18727,-0.165372 -0.28125,-0.25 -1.00149,-0.901849 -2.01862,-1.782348 -3.03125,-2.625 -0.0226,-0.01882 -0.0399,-0.04371 -0.0625,-0.0625 -3.4228,-2.843258 -6.89603,-5.34472 -10.375,-7.4375 l -67.6875,0 z" id="path15" style="fill:#2f66b0"/><path d="m 754.6875,180.78125 0,178.65625 c 0.003,10e-4 0.0263,-1.6e-4 0.0312,0 0.003,-9e-4 0.0277,10e-4 0.0312,0 0.0539,-0.0172 0.20031,-0.0859 0.375,-0.1875 0.0314,-0.0182 0.057,-0.0404 0.0937,-0.0625 0.0388,-0.0237 0.14311,-0.0971 0.1875,-0.125 0.28396,-0.18049 0.67847,-0.43716 1.21875,-0.8125 0.81312,-0.55722 1.66677,-1.1156 2.5,-1.65625 0.0119,-0.008 0.0194,-0.0235 0.0312,-0.0312 1.69111,-1.09645 3.42003,-2.15769 5.1875,-3.1875 2.65121,-1.54471 5.35721,-3.00562 8.15625,-4.40625 2.79904,-1.40063 5.67566,-2.7364 8.59375,-4 1.94539,-0.8424 3.91861,-1.65339 5.90625,-2.4375 2.98146,-1.17616 6.00996,-2.29288 9.0625,-3.34375 4.07006,-1.40117 8.17577,-2.68196 12.3125,-3.875 2.06837,-0.59652 4.14651,-1.17113 6.21875,-1.71875 4.14448,-1.09525 8.29743,-2.08782 12.40625,-3 4.10882,-0.91218 8.18256,-1.75419 12.1875,-2.5 4.00494,-0.74581 7.94842,-1.40386 11.78125,-2 3.82214,-0.59447 7.54175,-1.13153 11.125,-1.59375 0.2226,-0.0287 0.43471,-0.0343 0.65625,-0.0625 4.97967,-0.63474 9.68359,-1.17618 14.03125,-1.59375 1.70291,-0.16345 3.3826,-0.30256 4.96875,-0.4375 5.81437,-0.49466 10.78955,-0.8034 14.6875,-1 1.94898,-0.0983 3.63246,-0.16992 5,-0.21875 2.73508,-0.0977 4.25,-0.125 4.25,-0.125 0,0 0.038,-0.0817 0.0625,-0.1875 10e-4,-0.008 -6.5e-4,-0.0224 0,-0.0312 0.0165,-0.13091 -0.008,-0.30524 -0.1875,-0.5 -0.64226,-0.60983 -1.26546,-1.23316 -1.875,-1.84375 -0.59905,-0.59979 -1.18184,-1.18104 -1.75,-1.78125 -0.005,-0.006 0.005,-0.0257 0,-0.0312 -4.00393,-4.23189 -7.26929,-8.46664 -9.875,-12.65625 -0.005,-0.008 0.005,-0.0237 0,-0.0312 -5.5816,-8.9818 -8.23002,-17.73004 -9.125,-25.71875 -0.001,-0.0105 10e-4,-0.0208 0,-0.0312 -0.11772,-1.05577 -0.22192,-2.09737 -0.28125,-3.125 -6e-4,-0.0105 5.9e-4,-0.0208 0,-0.0312 -0.17745,-3.10136 -0.0977,-6.07636 0.15625,-8.875 9.6e-4,-0.0105 -9.6e-4,-0.0208 0,-0.0312 0.0844,-0.92535 0.1919,-1.83159 0.3125,-2.71875 10e-4,-0.0104 -0.001,-0.0209 0,-0.0312 0.12093,-0.88639 0.28593,-1.74805 0.4375,-2.59375 0.002,-0.0103 -0.002,-0.021 0,-0.0312 0.15183,-0.84484 0.32307,-1.66709 0.5,-2.46875 0.002,-0.0101 -0.002,-0.0211 0,-0.0312 2.33171,-10.54126 6.59375,-17.21875 6.59375,-17.21875 0,0 -0.0214,-0.0537 -0.0312,-0.0937 -0.002,-0.006 0.002,-0.025 0,-0.0312 -0.0189,-0.0569 -0.0927,-0.11711 -0.15625,-0.1875 -0.005,-0.005 0.005,-0.0265 0,-0.0312 -0.0385,-0.0385 -0.0659,-0.0608 -0.125,-0.0937 -0.11824,-0.0659 -0.27293,-0.11778 -0.5,-0.125 -0.11353,-0.004 -0.25891,0.0111 -0.40625,0.0312 -4.27953,0.65462 -8.42515,1.13365 -12.46875,1.46875 -0.34233,0.0284 -0.69059,0.0676 -1.03125,0.0937 -0.0315,0.002 -0.0623,-0.002 -0.0937,0 -0.27414,0.0209 -0.53945,0.043 -0.8125,0.0625 -2.33323,0.16672 -4.62029,0.27697 -6.875,0.34375 -0.35313,0.0105 -0.71129,0.0232 -1.0625,0.0312 -2.66533,0.0613 -5.2877,0.0395 -7.84375,-0.0312 -1.41881,-0.0394 -2.83324,-0.0783 -4.21875,-0.15625 -0.72464,-0.0409 -1.44067,-0.10514 -2.15625,-0.15625 -0.58299,-0.0416 -1.17299,-0.0768 -1.75,-0.125 -2.44786,-0.20487 -4.84642,-0.4616 -7.1875,-0.78125 -2.43737,-0.3328 -4.80164,-0.73998 -7.125,-1.1875 -0.12547,-0.0241 -0.24986,-0.038 -0.375,-0.0625 -2.18297,-0.42707 -4.32283,-0.9176 -6.40625,-1.4375 -0.14568,-0.0364 -0.2923,-0.057 -0.4375,-0.0937 -0.66641,-0.16879 -1.31248,-0.35352 -1.96875,-0.53125 -0.39491,-0.10696 -0.79625,-0.20239 -1.1875,-0.3125 -0.97559,-0.27456 -1.92204,-0.5502 -2.875,-0.84375 -0.14539,-0.0448 -0.29263,-0.0798 -0.4375,-0.125 -0.50636,-0.15804 -1.00003,-0.33681 -1.5,-0.5 -0.54235,-0.17689 -1.09014,-0.34846 -1.625,-0.53125 -0.85775,-0.29331 -1.72391,-0.59837 -2.5625,-0.90625 -0.13638,-0.0501 -0.27037,-0.10579 -0.40625,-0.15625 -0.20007,-0.0743 -0.39477,-0.14368 -0.59375,-0.21875 -0.73026,-0.27558 -1.4719,-0.55767 -2.1875,-0.84375 -0.52805,-0.21121 -1.04239,-0.43956 -1.5625,-0.65625 -0.45073,-0.18773 -0.89896,-0.3708 -1.34375,-0.5625 -0.84226,-0.36302 -1.67892,-0.74842 -2.5,-1.125 -0.80621,-0.36976 -1.58905,-0.74302 -2.375,-1.125 -0.28206,-0.13704 -0.56429,-0.26771 -0.84375,-0.40625 -0.71151,-0.35283 -1.43024,-0.70039 -2.125,-1.0625 -0.13695,-0.0714 -0.26995,-0.14702 -0.40625,-0.21875 -0.72804,-0.38306 -1.44662,-0.76377 -2.15625,-1.15625 -0.17711,-0.0979 -0.35528,-0.18276 -0.53125,-0.28125 -0.57157,-0.31993 -1.12792,-0.6432 -1.6875,-0.96875 -0.15768,-0.0917 -0.31202,-0.1891 -0.46875,-0.28125 -0.22991,-0.13519 -0.45963,-0.27017 -0.6875,-0.40625 -0.68718,-0.41035 -1.3625,-0.83204 -2.03125,-1.25 -0.60582,-0.3786 -1.19044,-0.74076 -1.78125,-1.125 -0.0635,-0.0413 -0.12418,-0.0837 -0.1875,-0.125 -0.36769,-0.24014 -0.73187,-0.47662 -1.09375,-0.71875 -0.48278,-0.32296 -0.96501,-0.64253 -1.4375,-0.96875 -0.5748,-0.39687 -1.12783,-0.8176 -1.6875,-1.21875 -0.58765,-0.42121 -1.17891,-0.82475 -1.75,-1.25 -0.26912,-0.20037 -0.54704,-0.39259 -0.8125,-0.59375 -0.54372,-0.41206 -1.06528,-0.83511 -1.59375,-1.25 -0.17837,-0.13999 -0.35461,-0.26598 -0.53125,-0.40625 -0.46965,-0.37297 -0.91752,-0.75038 -1.375,-1.125 -0.0113,-0.009 -0.0199,-0.022 -0.0312,-0.0312 -0.64218,-0.52625 -1.25664,-1.06534 -1.875,-1.59375 -1.2329,-1.05355 -2.42295,-2.10151 -3.5625,-3.15625 -0.96251,-0.89088 -1.88417,-1.77099 -2.78125,-2.65625 -0.22962,-0.22656 -0.46212,-0.46156 -0.6875,-0.6875 -0.60629,-0.60788 -1.17417,-1.21037 -1.75,-1.8125 -0.41627,-0.43515 -0.84949,-0.88122 -1.25,-1.3125 -0.79375,-0.85508 -1.54866,-1.69571 -2.28125,-2.53125 -0.11628,-0.1326 -0.22899,-0.27422 -0.34375,-0.40625 -0.59288,-0.68216 -1.16626,-1.33506 -1.71875,-2 -0.28301,-0.34061 -0.57123,-0.69578 -0.84375,-1.03125 -0.55644,-0.68498 -1.08055,-1.33913 -1.59375,-2 -0.20932,-0.26953 -0.4228,-0.5474 -0.625,-0.8125 -0.36783,-0.48225 -0.71801,-0.93979 -1.0625,-1.40625 -0.3563,-0.48254 -0.69967,-0.97348 -1.03125,-1.4375 -0.36546,-0.51114 -0.69536,-0.98208 -1.03125,-1.46875 -0.16417,-0.23789 -0.34283,-0.4871 -0.5,-0.71875 -0.51263,-0.75561 -0.9983,-1.47275 -1.4375,-2.15625 -0.10896,-0.16953 -0.20799,-0.30399 -0.3125,-0.46875 -0.35009,-0.5513 -0.63646,-1.03614 -0.9375,-1.53125 -0.0902,-0.14818 -0.16416,-0.26336 -0.25,-0.40625 -0.18236,-0.30335 -0.33689,-0.56506 -0.5,-0.84375 -0.11033,-0.18849 -0.21089,-0.38576 -0.3125,-0.5625 -0.59742,-1.03869 -1.03815,-1.81792 -1.34375,-2.40625 -0.0665,-0.12772 -0.0712,-0.11325 -0.125,-0.21875 -0.28091,-0.54591 -0.40625,-0.84375 -0.40625,-0.84375 z" id="path7" style="fill:#2f66b0"/><path d="m 915.1875,341.4375 c -1.39709,-0.005 -2.84794,0.003 -4.3125,0.0312 -0.0623,10e-4 -0.12512,-0.001 -0.1875,0 -0.23486,0.005 -0.48225,0.0256 -0.71875,0.0312 -0.46102,0.0111 -0.90786,0.0168 -1.375,0.0312 -0.86441,0.0265 -1.70908,0.0559 -2.59375,0.0937 -1.45546,0.0624 -2.93077,0.12531 -4.4375,0.21875 -0.14868,0.009 -0.28834,0.0218 -0.4375,0.0312 -1.6603,0.10567 -3.34639,0.23157 -5.0625,0.375 -1.71611,0.14343 -3.48394,0.3184 -5.25,0.5 -1.44527,0.14861 -2.89983,0.29432 -4.375,0.46875 -0.32743,0.0387 -0.63994,0.085 -0.96875,0.125 -1.62771,0.19815 -3.27843,0.42666 -4.9375,0.65625 -0.33232,0.046 -0.66653,0.0778 -1,0.125 -1.71146,0.24252 -3.41704,0.50515 -5.15625,0.78125 -3.99196,0.63565 -7.90195,1.34055 -11.6875,2.09375 -2.52441,0.50262 -4.99253,1.01516 -7.40625,1.5625 -3.61907,0.81999 -7.11145,1.69095 -10.4375,2.59375 -3.3278,0.904 -6.48619,1.84669 -9.46875,2.8125 -2.98256,0.96581 -5.79014,1.9623 -8.375,2.96875 -1.71254,0.66711 -3.3561,1.3537 -4.875,2.03125 l -0.78125,0.34375 c -0.68689,0.26364 -1.35358,0.53333 -2.03125,0.8125 -0.62235,0.25638 -1.26065,0.51197 -1.875,0.78125 -0.0551,0.0242 -0.10118,0.0695 -0.15625,0.0937 -0.78062,0.34392 -1.54517,0.69814 -2.3125,1.0625 -0.67029,0.31829 -1.34016,0.63514 -2,0.96875 -1.01314,0.51224 -2.01235,1.04617 -3,1.59375 -0.36932,0.20481 -0.7281,0.41533 -1.09375,0.625 -0.5624,0.32234 -1.13393,0.63509 -1.6875,0.96875 -0.55082,0.33201 -1.08311,0.68821 -1.625,1.03125 -0.93563,0.59286 -1.8731,1.18739 -2.78125,1.8125 -0.9755,0.67147 -1.93239,1.35492 -2.875,2.0625 -0.0418,0.0313 -0.0833,0.0623 -0.125,0.0937 -0.3628,0.27338 -0.70472,0.56513 -1.0625,0.84375 -0.83427,0.64968 -1.66242,1.29116 -2.46875,1.96875 -2.61095,2.19406 -5.07666,4.53173 -7.375,7 -0.11621,0.12462 -0.22838,0.24972 -0.34375,0.375 -0.47268,0.51397 -0.94782,1.03755 -1.40625,1.5625 -0.27159,0.31076 -0.54599,0.62295 -0.8125,0.9375 -0.10498,0.124 -0.20832,0.25042 -0.3125,0.375 -0.35363,0.42251 -0.7181,0.85212 -1.0625,1.28125 -0.0142,0.0177 -0.0171,0.0448 -0.0312,0.0625 -0.83853,1.04772 -1.65525,2.10176 -2.4375,3.1875 -0.78225,1.08574 -1.52595,2.19054 -2.25,3.3125 -1.08607,1.68295 -2.11281,3.42812 -3.0625,5.1875 -0.31656,0.58646 -0.60532,1.1555 -0.90625,1.75 -0.60186,1.18901 -1.18088,2.40517 -1.71875,3.625 -3.99262,9.0626 -6.21875,18.95629 -6.21875,29.3125 0,31.22832 20.03053,59.10624 49.03125,71.875 0.29317,0.004 0.58089,0.0312 0.875,0.0312 -0.28774,0 -0.55704,0.004 -0.84375,0 -0.0127,-0.006 -0.0186,-0.0257 -0.0312,-0.0312 -33.53625,-0.45512 -60.78969,-26.83679 -62.59385,-60.0309 l 0,-41.15625 -0.0625,0 0,101.25 63.53125,0 105.21875,0 56.3125,0 c 0.005,-0.004 -0.005,-0.0261 0,-0.0312 0.007,-0.006 0.0239,0.006 0.0312,0 0.0245,-0.0203 0.0403,-0.0435 0.0625,-0.0625 8.17968,-7.23676 14.7998,-14.30176 19.96875,-21.1875 0.005,-0.007 -0.005,-0.0244 0,-0.0312 9.59515,-12.788 14.28045,-24.98618 15.12505,-36.65625 7e-4,-0.0104 -8e-4,-0.0208 0,-0.0312 0.064,-0.88799 0.1053,-1.77436 0.125,-2.65625 10e-5,-0.0104 -2e-4,-0.0209 0,-0.0312 0.038,-1.73198 -0.029,-3.44749 -0.1563,-5.15625 0,-0.052 0,-0.10424 0,-0.15625 -0.01,-0.0736 -0.025,-0.14519 -0.031,-0.21875 -0.1368,-1.68513 -0.3352,-3.33707 -0.625,-5 -0.3024,-1.73552 -0.6948,-3.47573 -1.1562,-5.1875 -0.4615,-1.71177 -0.9811,-3.40529 -1.5938,-5.09375 -0.6127,-1.68846 -1.3063,-3.36566 -2.0625,-5.03125 -1.5088,-3.32338 -3.3099,-6.60879 -5.3437,-9.84375 0,-0.007 0,-0.0239 0,-0.0312 -0.1991,-0.31644 -0.4213,-0.62189 -0.625,-0.9375 -0.8402,-1.30131 -1.7075,-2.58762 -2.625,-3.875 -2.28033,-3.19923 -4.78546,-6.35307 -7.5001,-9.46875 -1.35732,-1.55784 -2.76446,-3.11864 -4.21875,-4.65625 -6.53923,-6.91386 -14.02467,-13.62689 -22.09375,-20.15625 -0.006,-0.005 -0.025,0.005 -0.0312,0 -1.78844,-1.44695 -3.59509,-2.91448 -5.4375,-4.34375 -0.006,-0.005 -0.0247,0.005 -0.0312,0 -5.54064,-4.29761 -11.29814,-8.5106 -17.1875,-12.65625 -0.007,-0.005 -0.0243,0.005 -0.0312,0 -3.93108,-2.76692 -7.8974,-5.51512 -11.90625,-8.21875 -0.13664,-0.0919 -0.29115,-0.17397 -0.4375,-0.25 -0.008,-0.004 -0.0227,0.004 -0.0312,0 -0.14624,-0.075 -0.2889,-0.15819 -0.4375,-0.21875 -0.01,-0.004 -0.0214,0.004 -0.0312,0 -0.0768,-0.0309 -0.14284,-0.0352 -0.21875,-0.0625 -0.53708,-0.18636 -1.0487,-0.32784 -1.34375,-0.375 -0.17066,-0.0273 -0.28125,-0.0312 -0.28125,-0.0312 l -0.1875,-0.0625 c -2.07886,-0.24615 -4.30737,-0.43105 -6.6875,-0.5625 -1.19007,-0.0657 -2.42789,-0.1206 -3.6875,-0.15625 -1.25961,-0.0356 -2.5497,-0.0578 -3.875,-0.0625 z" id="path9" style="fill:#efb61c"/><path d="m 1108.6875,155.90625 c -41.9457,0.50474 -80.0825,14.56914 -92.5625,23.40625 l -0.625,0.53125 -2.2812,2.375 0,0.0312 c -0.011,0.0119 -0.5567,0.56569 -1.5,1.5625 -0.01,0.0104 0.01,0.0208 0,0.0312 -0.9529,1.00669 -2.3124,2.41375 -3.9688,4.125 -0.01,0.007 0.01,0.0245 0,0.0312 -1.66,1.71486 -3.627,3.71739 -5.75,5.84375 -2.12836,2.13271 -4.43004,4.40677 -6.78125,6.65625 -1.17201,1.12577 -2.41594,2.27241 -3.6875,3.4375 -2.54312,2.33019 -5.19924,4.69617 -7.71875,6.875 -0.006,0.005 -0.0255,-0.005 -0.0312,0 -3.77191,3.26155 -7.20288,6.13889 -9.34375,7.90625 -1.42869,1.18245 -2.28125,1.875 -2.28125,1.875 -3.68277,2.76336 -6.92268,5.82004 -9.625,9.09375 -1.08044,1.31045 -2.06257,2.6512 -2.96875,4.03125 -1.35927,2.07008 -2.5293,4.19956 -3.46875,6.40625 -1.87483,4.40384 -2.87066,9.07021 -2.875,13.875 0,1.61338 0.12671,3.22257 0.375,4.8125 0.0244,0.15714 0.067,0.3119 0.0937,0.46875 0.20736,1.21747 0.46941,2.42772 0.8125,3.625 0.0602,0.20914 0.12336,0.41657 0.1875,0.625 0.0838,0.2732 0.19066,0.54057 0.28125,0.8125 0.16754,0.50133 0.30989,1.00332 0.5,1.5 0.005,0.0125 0.0265,0.0188 0.0312,0.0312 0.58391,1.52066 1.27867,3.03029 2.0625,4.5 0.004,0.008 -0.004,0.023 0,0.0312 0.39143,0.73283 0.81214,1.46942 1.25,2.1875 0.8779,1.44014 1.85491,2.87742 2.90625,4.25 0.009,0.0115 0.0224,0.0197 0.0312,0.0312 0.52252,0.67958 1.06315,1.33909 1.625,2 0.01,0.0113 0.0217,0.02 0.0312,0.0312 0.56266,0.66079 1.15016,1.32801 1.75,1.96875 0.005,0.006 -0.005,0.0255 0,0.0312 0.60511,0.64587 1.2343,1.2509 1.875,1.875 0.0106,0.0103 0.0207,0.0209 0.0312,0.0312 1.28287,1.24782 2.65051,2.47267 4.0625,3.625 0.71173,0.58084 1.44632,1.13303 2.1875,1.6875 0,0 1.23142,0.91674 3.28125,2.4375 5.12458,3.80191 15.37245,11.49309 24.37505,18.75 1.8005,1.45138 3.5381,2.86784 5.1874,4.25 4.9504,4.14803 10.2348,8.87784 14.9063,13.15625 7.7858,7.13069 13.875,13.03125 13.875,13.03125 5.5771,5.25054 10.5335,11.44139 14.7187,18.40625 0,0.008 0,0.0237 0,0.0312 0.8322,1.38569 1.6368,2.80585 2.4063,4.25 0.3869,0.72604 0.7857,1.44727 1.1563,2.1875 0,0.008 0,0.0231 0,0.0312 1.1069,2.21284 2.1382,4.47998 3.0937,6.8125 0,0.009 0,0.0224 0,0.0312 2.2329,5.45513 4.048,11.23678 5.375,17.25 0.3798,1.72086 0.7314,3.45927 1.0313,5.21875 0.4497,2.63923 0.7997,5.31399 1.0624,8.03125 0.1752,1.81151 0.3174,3.65775 0.4063,5.5 0.044,0.92112 0.071,1.82178 0.094,2.75 3e-4,0.0104 -2e-4,0.0208 0,0.0312 0.022,0.91798 0.031,1.85672 0.031,2.78125 0,1.61113 -0.028,3.1907 -0.094,4.78125 -5e-4,0.0103 4e-4,0.0209 0,0.0312 0,0.084 -0.028,0.16603 -0.031,0.25 -0.129,2.93538 -0.3729,5.83237 -0.7187,8.6875 -0.018,0.14469 -0.013,0.29303 -0.031,0.4375 0,0.0102 0,0.0211 0,0.0312 -0.028,0.22047 -0.065,0.43631 -0.094,0.65625 -0.3744,2.84898 -0.8573,5.68329 -1.4376,8.4375 -0.6271,2.97676 -1.3636,5.89923 -2.2187,8.75 -0.8537,2.85089 -1.8064,5.63474 -2.875,8.34375 -2.6751,6.77228 -5.9996,13.06925 -9.875,18.78125 -1.5495,2.28484 -3.1869,4.47513 -4.9063,6.5625 l -20.0624,25.09375 0,0.0312 50.5,0 105.1562,0 63.5938,0 0,-63.59375 0,-37.65625 0,-195.46875 -0.063,-0.0625 c -20.8453,-20.83416 -56.7908,-41.78651 -103.0937,-49.1875 -9.8188,-1.55744 -19.6952,-2.17898 -29.375,-2.0625 z" id="path13-4" style="fill:#0f8241"/><path d="m 990.71875,17.34375 c 3.6107,3.012239 7.04188,6.166519 10.31245,9.4375 0.8232,0.823033 1.6372,1.629842 2.4376,2.46875 5.5661,5.833766 10.571,12.03403 14.9374,18.59375 0,0.0071 0,0.02411 0,0.03125 1.8659,2.804384 3.6256,5.66606 5.25,8.59375 0,0.0079 0,0.02335 0,0.03125 1.0809,1.949064 2.1249,3.935869 3.0938,5.9375 0.8253,1.704814 1.6023,3.445695 2.3438,5.1875 0.1297,0.30492 0.2791,0.600214 0.4062,0.90625 0.1244,0.299219 0.2219,0.60597 0.3438,0.90625 0.7163,1.765062 1.403,3.542647 2.0312,5.34375 0,0.01259 0.027,0.01866 0.031,0.03125 0.363,1.043146 0.6985,2.101284 1.0313,3.15625 0,0.0095 0,0.02177 0,0.03125 0.3334,1.058127 0.6662,2.11769 0.9687,3.1875 0,0.0096 0,0.02164 0,0.03125 0.3023,1.069926 0.6041,2.168596 0.875,3.25 0.5007,1.998152 0.9213,4.026229 1.3126,6.0625 0.034,0.179332 0.091,0.351627 0.125,0.53125 0.031,0.166785 0.063,0.332965 0.094,0.5 0.7703,4.224662 1.2827,8.52795 1.5625,12.90625 0,0.0739 0.027,0.14477 0.031,0.21875 7e-4,0.0104 -6e-4,0.0209 0,0.0312 0.1414,2.30356 0.2188,4.62507 0.2188,6.96875 0,0.0104 0,0.0208 0,0.0312 -5e-4,1.66802 -0.048,3.33152 -0.125,4.96875 -5e-4,0.0103 5e-4,0.021 0,0.0312 -0.078,1.64731 -0.1928,3.25943 -0.3438,4.875 -0.1508,1.61575 -0.3423,3.19764 -0.5624,4.78125 0,0.0101 0,0.0211 0,0.0312 -0.2192,1.57319 -0.4666,3.14652 -0.75,4.6875 -0.8566,4.65204 -2.0054,9.15064 -3.375,13.5 -0.9126,2.90036 -1.9317,5.7389 -3.0313,8.5 -1.1001,2.76032 -2.2769,5.44523 -3.5313,8.0625 -1.2537,2.61795 -2.5622,5.15409 -3.9374,7.625 0,0.008 0,0.0233 0,0.0312 -2.059,3.69776 -4.2609,7.23633 -6.5,10.59375 l 0.1562,-0.0625 c 15.3343,-10.87746 69.5706,-29.67885 121.9375,-21.34375 46.304,7.37222 82.2484,28.34409 103.0937,49.1875 l 0.063,0.0625 0,-88.65625 0,-37.65625 0,-63.59375 -168.75,0 0,0.09375 -80.6563,0 -1.09375,-0.09375 z" id="path11-8" style="fill:#ea1d25"/><path d="M 755.97218,67.410743 C 766.49203,47.383269 780.74011,30.985384 796.70639,19.859238 776.29767,27.858307 760.8041,45.621912 755.97218,67.410743 z" id="path17-9" style="fill:#2f66b0"/><path d="m 909.9635,17.34375 c 21.85769,13.148521 43.66296,42.234549 52.14296,73.115846 16.64246,60.700024 17.31453,111.177194 -44.88378,130.679544 -44.58679,14.00557 -88.50974,-28.37696 -105.15117,-89.05849 -12.4261,-45.349294 -6.85121,-94.168893 30.21025,-114.7369 h -24.04961 c -8.97224,0 -17.50259,1.871314 -25.24167,5.224469 -14.34057,10.918565 -27.11298,26.129538 -36.78092,44.391544 -0.92075,4.10949 -1.4469,8.36696 -1.53014,12.733358 l 0.0206,101.098199 c 0.57855,1.22494 35.84372,74.88851 134.73868,59.76077 1.17869,-0.16134 1.20541,0.5354 1.20541,0.5354 0,0 -25.83564,40.55232 14.90679,79.23641 0.3977,0.40694 0.13051,0.74708 0.13051,0.74708 0,0 -96.25498,0.98755 -149.04637,37.16525 -1.34928,0.9372 -1.77369,1.16225 -1.90214,1.19822 l 0.0164,84.4023 c 1.81993,33.48429 29.54435,60.07831 63.48285,60.07831 -0.28774,0 -0.57239,-0.0175 -0.8591,-0.0216 -29.02129,-12.7611 -49.05904,-40.65714 -49.05904,-71.89913 0,-32.67143 21.8546,-60.72263 53.03186,-72.68835 l 0.79435,-0.35145 c 12.21646,-5.44952 30.9409,-10.6596 52.23133,-14.04975 21.88646,-3.47442 41.7567,-4.27905 55.06142,-2.7037 l 0.19217,0.0565 c 0,0 1.62263,0.18498 2.77563,0.96084 64.14156,43.25806 122.29823,94.39188 47.44257,160.6185 -0.0288,0.0247 -0.0647,0.0524 -0.0945,0.0781 h 42.22936 l 20.0367,-25.11116 c 13.7549,-16.69898 22.3047,-39.96965 22.3047,-65.74774 0,-29.91738 -11.5372,-56.50524 -29.384,-73.30698 0,0 -15.5748,-15.12157 -28.7757,-26.18298 -13.19471,-11.05729 -32.86046,-25.43588 -32.86046,-25.43588 -11.85885,-8.87153 -20.09221,-21.20925 -20.09221,-34.11628 0,-12.84229 7.16155,-24.57679 18.9464,-33.41954 0,0 13.67672,-11.11176 23.05282,-20.11791 9.40375,-8.99895 18.00505,-18.2435 18.00505,-18.2435 l 2.2957,-2.40774 0.5488,-0.4686 -0.089,0.0432 c 11.9678,-17.94447 22.1464,-40.84314 22.1464,-67.70024 0,-37.666733 -18.5117,-70.258006 -47.39729,-94.35592 l -80.75217,0 z" id="path21-2" style="fill:#ffffff"/></g></svg>