<?xml version="1.0" ?><svg height="500" id="svg2" version="1.1" width="500" xmlns="http://www.w3.org/2000/svg" xmlns:cc="http://creativecommons.org/ns#" xmlns:dc="http://purl.org/dc/elements/1.1/" xmlns:inkscape="http://www.inkscape.org/namespaces/inkscape" xmlns:rdf="http://www.w3.org/1999/02/22-rdf-syntax-ns#" xmlns:sodipodi="http://sodipodi.sourceforge.net/DTD/sodipodi-0.dtd" xmlns:svg="http://www.w3.org/2000/svg"><defs id="defs4"/><g id="layer1" transform="translate(0,-552.36218)"><path d="m 0,552.36216 0,500.00004 500,0 0,-500.00004 z" id="rect2989-1" style="opacity:1;fill:#cc181e;fill-opacity:1;stroke:none"/><g id="layer1-9" transform="translate(-549.00515,80.294372)"/><g id="layer1-6" transform="translate(-575.71429,39.999999)"/><g id="layer1-61" transform="translate(332.85715,4.9999966)"><g id="g2994" transform="matrix(12.258419,0,0,12.258419,54.872837,607.69312)"/><g id="g2996" transform="matrix(12.258419,0,0,12.258419,54.872837,607.69312)"/><g id="g2998" transform="matrix(12.258419,0,0,12.258419,54.872837,607.69312)"/><g id="g3000" transform="matrix(12.258419,0,0,12.258419,54.872837,607.69312)"/><g id="g3002" transform="matrix(12.258419,0,0,12.258419,54.872837,607.69312)"/><g id="g3004" transform="matrix(12.258419,0,0,12.258419,54.872837,607.69312)"/></g><path d="M 500,500 192.14286,500 70.43881,378.29595 159.28571,142.14286 427.1875,119.10714 500,191.91964 z" id="path3768" style="fill:#000000;stroke:none;stroke-width:1px;stroke-linecap:butt;stroke-linejoin:miter;stroke-opacity:1;opacity:0.3" transform="translate(0,552.36218)"/><path d="M 249.875 99.9375 C 249.875 99.9375 165.93482 99.91115 109.96875 104.25 C 102.15401 105.21277 85.10438 105.33251 69.875 122.3125 C 57.89654 135.26615 54 164.65625 54 164.65625 C 54 164.65625 50 199.19631 50 233.71875 L 50 266.09375 C 50 300.64123 54 335.125 54 335.125 C 54 335.125 57.88395 364.53999 69.875 377.46875 C 85.10438 394.44857 105.09752 393.94327 114 395.71875 C 145.99675 398.99466 249.96875 400 249.96875 400 C 249.96875 400 334.02135 399.85122 390 395.5625 C 397.81475 394.56221 414.90812 394.47998 430.125 377.5 C 442.10344 364.57129 445.96875 335.125 445.96875 335.125 C 445.96875 335.125 450 300.62874 450 266.09375 L 450 233.75 C 450 199.21505 445.96875 164.65625 445.96875 164.65625 C 445.96875 164.65625 442.11603 135.26615 430.125 122.3125 C 414.90811 105.33251 397.81475 105.21277 390 104.25 C 334.02135 99.91093 250.09375 99.9375 250.09375 99.9375 L 249.875 99.9375 z M 200.03125 174.9375 L 325.09375 249.96875 L 200.03125 325 L 200.03125 174.9375 z " id="rect2989-7" style="opacity:1;fill:#ffffff;fill-opacity:1;stroke:none" transform="translate(0,552.36218)"/></g></svg>