<?xml version="1.0" encoding="UTF-8" standalone="no"?>
<!DOCTYPE svg PUBLIC "-//W3C//DTD SVG 1.1//EN" "http://www.w3.org/Graphics/SVG/1.1/DTD/svg11.dtd">
<svg width="100%" height="100%" viewBox="0 0 512 512" version="1.1" xmlns="http://www.w3.org/2000/svg" xmlns:xlink="http://www.w3.org/1999/xlink" xml:space="preserve" xmlns:serif="http://www.serif.com/" style="fill-rule:evenodd;clip-rule:evenodd;stroke-linejoin:round;stroke-miterlimit:2;">
    <path d="M512,256C512,397.387 397.387,512 256,512C114.613,512 0,397.387 0,256C0,114.613 114.613,0 256,0C397.387,0 512,114.613 512,256Z" style="fill:rgb(249,40,20);fill-rule:nonzero;"/>
    <path d="M238.931,511.436C397.011,522.275 474.199,407.985 497.865,340.106C497.935,339.903 317.898,125.898 317.898,125.898L225.269,299.583L238.059,321.582L113.073,386.424C113.073,386.424 234.275,511.117 238.931,511.436Z" style="fill:rgb(219,4,4);fill-rule:nonzero;"/>
    <g transform="matrix(1,0,0,1,41,0)">
        <path d="M298.016,181.207C298.016,227.055 260.848,264.223 215,264.223C169.152,264.223 131.984,227.055 131.984,181.207C131.984,135.359 169.152,98.191 215,98.191C260.848,98.191 298.016,135.359 298.016,181.207Z" style="fill:white;fill-rule:nonzero;"/>
        <path d="M72.473,385.91L357.527,385.91C346.672,316.961 287.004,264.223 215,264.223C142.996,264.223 83.328,316.961 72.473,385.91Z" style="fill:white;fill-rule:nonzero;"/>
        <path d="M215,98.191C214.559,98.191 214.125,98.219 213.684,98.227L213.684,264.188C214.125,264.195 214.559,264.223 215,264.223C260.848,264.223 298.016,227.055 298.016,181.207C298.016,135.359 260.848,98.191 215,98.191Z" style="fill:rgb(220,225,235);fill-rule:nonzero;"/>
        <path d="M215,264.223C214.563,264.223 214.125,264.23 213.684,264.234L213.684,385.91L357.527,385.91C346.672,316.961 287.004,264.223 215,264.223Z" style="fill:rgb(220,225,235);fill-rule:nonzero;"/>
    </g>
</svg>
