<?xml version="1.0" encoding="UTF-8" standalone="no"?>
<!DOCTYPE svg PUBLIC "-//W3C//DTD SVG 1.1//EN" "http://www.w3.org/Graphics/SVG/1.1/DTD/svg11.dtd">
<svg width="100%" height="100%" viewBox="0 0 512 512" version="1.1" xmlns="http://www.w3.org/2000/svg" xmlns:xlink="http://www.w3.org/1999/xlink" xml:space="preserve" xmlns:serif="http://www.serif.com/" style="fill-rule:evenodd;clip-rule:evenodd;stroke-linejoin:round;stroke-miterlimit:2;">
    <g id="user">
        <path d="M512,256C512,397.387 397.387,512 256,512C114.613,512 0,397.387 0,256C0,114.613 114.613,0 256,0C397.387,0 512,114.613 512,256Z" style="fill:rgb(249,40,20);fill-rule:nonzero;"/>
        <path d="M512,256C512,255.171 460.798,206.527 460.798,206.527L452.183,206.904L424.042,184.776L414.284,210.477L364.099,165.082L361.164,184.466L375.203,224.039L274.867,123.703L158.5,242.023L238.059,321.582L72.473,385.91L189.938,503.375C211.016,508.992 233.156,512 256,512C397.387,512 512,397.387 512,256Z" style="fill:rgb(219,4,4);fill-rule:nonzero;"/>
        <path d="M298.016,181.207C298.016,227.055 260.848,264.223 215,264.223C169.152,264.223 131.984,227.055 131.984,181.207C131.984,135.359 169.152,98.191 215,98.191C260.848,98.191 298.016,135.359 298.016,181.207Z" style="fill:white;fill-rule:nonzero;"/>
        <path d="M72.473,385.91L357.527,385.91C346.672,316.961 287.004,264.223 215,264.223C142.996,264.223 83.328,316.961 72.473,385.91Z" style="fill:white;fill-rule:nonzero;"/>
        <path d="M215,98.191C214.559,98.191 214.125,98.219 213.684,98.227L213.684,264.188C214.125,264.195 214.559,264.223 215,264.223C260.848,264.223 298.016,227.055 298.016,181.207C298.016,135.359 260.848,98.191 215,98.191Z" style="fill:rgb(220,225,235);fill-rule:nonzero;"/>
        <path d="M215,264.223C214.563,264.223 214.125,264.23 213.684,264.234L213.684,385.91L357.527,385.91C346.672,316.961 287.004,264.223 215,264.223Z" style="fill:rgb(220,225,235);fill-rule:nonzero;"/>
    </g>
    <g id="crown" transform="matrix(0.406252,0,0,0.406252,256.828,140.601)">
        <path d="M461.546,358.494L488.623,181.47L418.964,252.289L399.536,128.762L310.874,235.145L256,82.009L201.126,235.145L112.464,128.762L93.036,252.289L23.377,181.47L50.454,358.494L50.454,405.928L461.546,405.928L461.546,358.494Z" style="fill:rgb(255,219,12);fill-rule:nonzero;"/>
        <path d="M461.546,358.494L488.623,181.47L418.964,252.289L399.536,128.762L310.874,235.145L256,82.009L256,405.928L461.546,405.928L461.546,358.494Z" style="fill:rgb(251,191,0);fill-rule:nonzero;"/>
        <rect x="50.45" y="358.497" width="411.09" height="94.87" style="fill:rgb(255,169,0);"/>
        <g>
            <rect x="256" y="358.497" width="205.55" height="94.87" style="fill:rgb(255,136,0);"/>
            <circle cx="23.377" cy="181.467" r="23.377" style="fill:rgb(107,147,255);"/>
        </g>
        <circle cx="112.46" cy="128.757" r="23.377" style="fill:rgb(74,122,255);"/>
        <circle cx="256" cy="82.007" r="23.377" style="fill:rgb(62,113,255);"/>
        <circle cx="488.62" cy="181.467" r="23.377" style="fill:rgb(0,83,191);"/>
        <circle cx="399.54" cy="128.757" r="23.377" style="fill:rgb(0,94,216);"/>
    </g>
</svg>
