<?xml version="1.0" encoding="UTF-8" standalone="no"?>
<!DOCTYPE svg PUBLIC "-//W3C//DTD SVG 1.1//EN" "http://www.w3.org/Graphics/SVG/1.1/DTD/svg11.dtd">
<svg width="100%" height="100%" viewBox="0 0 512 512" version="1.1" xmlns="http://www.w3.org/2000/svg" xmlns:xlink="http://www.w3.org/1999/xlink" xml:space="preserve" xmlns:serif="http://www.serif.com/" style="fill-rule:evenodd;clip-rule:evenodd;stroke-linejoin:round;stroke-miterlimit:2;">
    <g>
        <path d="M512,256C512,397.387 397.387,512 256,512C114.613,512 0,397.387 0,256C0,114.613 114.613,0 256,0C397.387,0 512,114.613 512,256Z" style="fill:rgb(249,40,20);fill-rule:nonzero;"/>
        <path d="M512,256C512,254.609 512.36,234.215 507.954,211.002C507.693,209.627 400.799,91.682 400.799,91.682L375.203,224.039L274.867,123.703L158.5,242.023L238.059,321.582L72.473,385.91L189.938,503.375C211.016,508.992 233.156,512 256,512C397.387,512 512,397.387 512,256Z" style="fill:rgb(219,4,4);fill-rule:nonzero;"/>
        <path d="M298.016,181.207C298.016,227.055 260.848,264.223 215,264.223C169.152,264.223 131.984,227.055 131.984,181.207C131.984,135.359 169.152,98.191 215,98.191C260.848,98.191 298.016,135.359 298.016,181.207Z" style="fill:white;fill-rule:nonzero;"/>
        <path d="M72.473,385.91L357.527,385.91C346.672,316.961 287.004,264.223 215,264.223C142.996,264.223 83.328,316.961 72.473,385.91Z" style="fill:white;fill-rule:nonzero;"/>
        <path d="M215,98.191C214.559,98.191 214.125,98.219 213.684,98.227L213.684,264.188C214.125,264.195 214.559,264.223 215,264.223C260.848,264.223 298.016,227.055 298.016,181.207C298.016,135.359 260.848,98.191 215,98.191Z" style="fill:rgb(220,225,235);fill-rule:nonzero;"/>
        <path d="M215,264.223C214.563,264.223 214.125,264.23 213.684,264.234L213.684,385.91L357.527,385.91C346.672,316.961 287.004,264.223 215,264.223Z" style="fill:rgb(220,225,235);fill-rule:nonzero;"/>
    </g>
    <g id="vip" transform="matrix(0.564556,0.0783506,-0.0783506,0.564556,215.986,65.5595)">
        <path d="M466.089,139.805C440.161,165.733 398.122,165.733 372.194,139.805C346.266,113.877 346.266,71.838 372.194,45.91L326.284,0L0,326.284L45.911,372.195C71.839,346.267 113.878,346.267 139.806,372.195C165.734,398.123 165.734,440.162 139.806,466.09L185.716,512L512,185.716L466.089,139.805Z" style="fill:rgb(255,212,0);fill-rule:nonzero;"/>
        <path d="M466.089,139.805C440.161,165.733 398.122,165.733 372.194,139.805L139.806,372.194C165.734,398.122 165.734,440.161 139.806,466.089L185.716,512L512,185.716L466.089,139.805Z" style="fill:rgb(253,186,18);fill-rule:nonzero;"/>
        <g>
            <path d="M180.791,284.996L226.014,309.404L201.455,264.332L216.805,248.984L250.42,321.682L238.293,333.81L165.369,300.419L180.791,284.996Z" style="fill:rgb(74,122,255);fill-rule:nonzero;"/>
            <path d="M281.416,290.688L228.258,237.53L242.858,222.93L296.016,276.088L281.416,290.688Z" style="fill:rgb(74,122,255);fill-rule:nonzero;"/>
            <path d="M312.635,259.468L259.479,206.311L282.387,183.401C292.793,172.995 309.641,174.866 318.7,183.924C328.134,193.358 330.081,209.381 319.598,219.862L310.912,228.548L327.234,244.87L312.635,259.468ZM298.186,215.818L305.897,208.107C307.694,206.31 308.143,203.016 303.876,198.749C299.458,194.332 295.94,195.305 294.144,197.102L286.806,204.44L298.186,215.818Z" style="fill:rgb(74,122,255);fill-rule:nonzero;"/>
        </g>
    </g>
</svg>
