<?xml version="1.0" encoding="UTF-8" standalone="no"?><svg viewBox="0 0 512 512" xmlns="http://www.w3.org/2000/svg" fill-rule="evenodd" clip-rule="evenodd" stroke-linejoin="round" stroke-miterlimit="2"><g fill-rule="nonzero"><path d="M512 256c0 141.387-114.613 256-256 256S0 397.387 0 256 114.613 0 256 0s256 114.613 256 256z" fill="#f92814"/><path d="M512 256c0-1.391-.031-2.777-.055-4.16l-77.925-77.93-58.817 50.129-100.336-100.336L158.5 242.023l79.559 79.559L72.473 385.91l117.465 117.465C211.016 508.992 233.156 512 256 512c141.387 0 256-114.613 256-256z" fill="#db0404"/><path d="M298.016 181.207c0 45.848-37.168 83.016-83.016 83.016-45.848 0-83.016-37.168-83.016-83.016 0-45.848 37.168-83.016 83.016-83.016 45.848 0 83.016 37.168 83.016 83.016zM72.473 385.91h285.054C346.672 316.961 287.004 264.223 215 264.223c-72.004 0-131.672 52.738-142.527 121.687z" fill="#fff"/><path d="M215 98.191c-.441 0-.875.028-1.316.036v165.961c.441.007.875.035 1.316.035 45.848 0 83.016-37.168 83.016-83.016 0-45.848-37.168-83.016-83.016-83.016zM215 264.223c-.437 0-.875.007-1.316.011V385.91h143.843C346.672 316.961 287.004 264.223 215 264.223z" fill="#dce1eb"/><path d="M464.23 247.238c0 57.504-46.613 104.117-104.117 104.117-57.5 0-104.113-46.613-104.113-104.117 0-57.5 46.613-104.113 104.113-104.113 57.504 0 104.117 46.613 104.117 104.113z" fill="#ffd400"/><path d="M464.23 247.238c0-57.425-46.496-103.992-103.894-104.109v208.223c57.398-.118 103.894-46.684 103.894-104.114z" fill="#fdba12"/><path d="M433.262 224.238h-50.149v-50.144h-46v50.144h-50.144v46h50.144v50.149h46v-50.149h50.149v-46z" fill="#4a7aff"/><path d="M383.113 224.238v-50.144h-22.781v146.293h22.781v-50.149h50.149v-46h-50.149z" fill="#0053bf"/></g></svg>