<?xml version="1.0" encoding="UTF-8" standalone="no"?><svg viewBox="0 0 512 512" xmlns="http://www.w3.org/2000/svg" fill-rule="evenodd" clip-rule="evenodd" stroke-linejoin="round" stroke-miterlimit="2"><g fill-rule="nonzero"><path d="M512 256c0 141.387-114.613 256-256 256S0 397.387 0 256 114.613 0 256 0s256 114.613 256 256z" fill="#f92814"/><path d="M512 256c0-.829-51.202-49.473-51.202-49.473l-8.615.377-28.141-22.128-9.758 25.701-50.185-45.395-2.935 19.384 14.039 39.573-100.336-100.336L158.5 242.023l79.559 79.559L72.473 385.91l117.465 117.465C211.016 508.992 233.156 512 256 512c141.387 0 256-114.613 256-256z" fill="#db0404"/><path d="M298.016 181.207c0 45.848-37.168 83.016-83.016 83.016-45.848 0-83.016-37.168-83.016-83.016 0-45.848 37.168-83.016 83.016-83.016 45.848 0 83.016 37.168 83.016 83.016zM72.473 385.91h285.054C346.672 316.961 287.004 264.223 215 264.223c-72.004 0-131.672 52.738-142.527 121.687z" fill="#fff"/><path d="M215 98.191c-.441 0-.875.028-1.316.036v165.961c.441.007.875.035 1.316.035 45.848 0 83.016-37.168 83.016-83.016 0-45.848-37.168-83.016-83.016-83.016zM215 264.223c-.437 0-.875.007-1.316.011V385.91h143.843C346.672 316.961 287.004 264.223 215 264.223z" fill="#dce1eb"/></g><g transform="translate(256.828 140.601) scale(.40625)"><path d="M461.546 358.494l27.077-177.024-69.659 70.819-19.428-123.527-88.662 106.383L256 82.009l-54.874 153.136-88.662-106.383-19.428 123.527-69.659-70.819 27.077 177.024v47.434h411.092v-47.434z" fill="#ffdb0c" fill-rule="nonzero"/><path d="M461.546 358.494l27.077-177.024-69.659 70.819-19.428-123.527-88.662 106.383L256 82.009v323.919h205.546v-47.434z" fill="#fbbf00" fill-rule="nonzero"/><path fill="#ffa900" d="M50.45 358.497h411.09v94.87H50.45z"/><path fill="#f80" d="M256 358.497h205.55v94.87H256z"/><circle cx="23.377" cy="181.467" r="23.377" fill="#6b93ff"/><circle cx="112.46" cy="128.757" r="23.377" fill="#4a7aff"/><circle cx="256" cy="82.007" r="23.377" fill="#3e71ff"/><circle cx="488.62" cy="181.467" r="23.377" fill="#0053bf"/><circle cx="399.54" cy="128.757" r="23.377" fill="#005ed8"/></g></svg>