<?xml version="1.0" encoding="UTF-8" standalone="no"?><svg viewBox="0 0 512 512" xmlns="http://www.w3.org/2000/svg" fill-rule="evenodd" clip-rule="evenodd" stroke-linejoin="round" stroke-miterlimit="2"><path d="M512 256c0 141.387-114.613 256-256 256S0 397.387 0 256 114.613 0 256 0s256 114.613 256 256z" fill="#f92814" fill-rule="nonzero"/><path d="M238.931 511.436c158.08 10.839 235.268-103.451 258.934-171.33.07-.203-179.967-214.208-179.967-214.208l-92.629 173.685 12.79 21.999-124.986 64.842s121.202 124.693 125.858 125.012z" fill="#db0404" fill-rule="nonzero"/><g fill-rule="nonzero"><path d="M339.016 181.207c0 45.848-37.168 83.016-83.016 83.016-45.848 0-83.016-37.168-83.016-83.016 0-45.848 37.168-83.016 83.016-83.016 45.848 0 83.016 37.168 83.016 83.016zM113.473 385.91h285.054C387.672 316.961 328.004 264.223 256 264.223c-72.004 0-131.672 52.738-142.527 121.687z" fill="#fff"/><path d="M256 98.191c-.441 0-.875.028-1.316.036v165.961c.441.007.875.035 1.316.035 45.848 0 83.016-37.168 83.016-83.016 0-45.848-37.168-83.016-83.016-83.016zM256 264.223c-.437 0-.875.007-1.316.011V385.91h143.843C387.672 316.961 328.004 264.223 256 264.223z" fill="#dce1eb"/></g></svg>