<?xml version="1.0" encoding="UTF-8" standalone="no"?>
<!DOCTYPE svg PUBLIC "-//W3C//DTD SVG 1.1//EN" "http://www.w3.org/Graphics/SVG/1.1/DTD/svg11.dtd">
<svg width="100%" height="100%" viewBox="0 0 512 512" version="1.1" xmlns="http://www.w3.org/2000/svg" xmlns:xlink="http://www.w3.org/1999/xlink" xml:space="preserve" xmlns:serif="http://www.serif.com/" style="fill-rule:evenodd;clip-rule:evenodd;stroke-linejoin:round;stroke-miterlimit:2;">
    <g>
        <path d="M512,256C512,397.387 397.387,512 256,512C114.613,512 0,397.387 0,256C0,114.613 114.613,0 256,0C397.387,0 512,114.613 512,256Z" style="fill:rgb(249,40,20);fill-rule:nonzero;"/>
        <path d="M512,256C512,254.609 511.969,253.223 511.945,251.84L434.02,173.91L375.203,224.039L274.867,123.703L158.5,242.023L238.059,321.582L72.473,385.91L189.938,503.375C211.016,508.992 233.156,512 256,512C397.387,512 512,397.387 512,256Z" style="fill:rgb(219,4,4);fill-rule:nonzero;"/>
        <path d="M298.016,181.207C298.016,227.055 260.848,264.223 215,264.223C169.152,264.223 131.984,227.055 131.984,181.207C131.984,135.359 169.152,98.191 215,98.191C260.848,98.191 298.016,135.359 298.016,181.207Z" style="fill:white;fill-rule:nonzero;"/>
        <path d="M72.473,385.91L357.527,385.91C346.672,316.961 287.004,264.223 215,264.223C142.996,264.223 83.328,316.961 72.473,385.91Z" style="fill:white;fill-rule:nonzero;"/>
        <path d="M215,98.191C214.559,98.191 214.125,98.219 213.684,98.227L213.684,264.188C214.125,264.195 214.559,264.223 215,264.223C260.848,264.223 298.016,227.055 298.016,181.207C298.016,135.359 260.848,98.191 215,98.191Z" style="fill:rgb(220,225,235);fill-rule:nonzero;"/>
        <path d="M215,264.223C214.563,264.223 214.125,264.23 213.684,264.234L213.684,385.91L357.527,385.91C346.672,316.961 287.004,264.223 215,264.223Z" style="fill:rgb(220,225,235);fill-rule:nonzero;"/>
        <path d="M464.23,247.238C464.23,304.742 417.617,351.355 360.113,351.355C302.613,351.355 256,304.742 256,247.238C256,189.738 302.613,143.125 360.113,143.125C417.617,143.125 464.23,189.738 464.23,247.238Z" style="fill:rgb(255,212,0);fill-rule:nonzero;"/>
        <path d="M464.23,247.238C464.23,189.813 417.734,143.246 360.336,143.129L360.336,351.352C417.734,351.234 464.23,304.668 464.23,247.238Z" style="fill:rgb(253,186,18);fill-rule:nonzero;"/>
        <path d="M433.262,224.238L383.113,224.238L383.113,174.094L337.113,174.094L337.113,224.238L286.969,224.238L286.969,270.238L337.113,270.238L337.113,320.387L383.113,320.387L383.113,270.238L433.262,270.238L433.262,224.238Z" style="fill:rgb(74,122,255);fill-rule:nonzero;"/>
        <path d="M383.113,224.238L383.113,174.094L360.332,174.094L360.332,320.387L383.113,320.387L383.113,270.238L433.262,270.238L433.262,224.238L383.113,224.238Z" style="fill:rgb(0,83,191);fill-rule:nonzero;"/>
    </g>
</svg>
