<?xml version="1.0" encoding="UTF-8" standalone="no"?><svg viewBox="0 0 512 512" xmlns="http://www.w3.org/2000/svg" fill-rule="evenodd" clip-rule="evenodd" stroke-linejoin="round" stroke-miterlimit="2"><g fill-rule="nonzero"><path d="M512 256c0 141.387-114.613 256-256 256S0 397.387 0 256 114.613 0 256 0s256 114.613 256 256z" fill="#f92814"/><path d="M512 256c0-1.391.36-21.785-4.046-44.998-.261-1.375-107.155-119.32-107.155-119.32l-25.596 132.357-100.336-100.336L158.5 242.023l79.559 79.559L72.473 385.91l117.465 117.465C211.016 508.992 233.156 512 256 512c141.387 0 256-114.613 256-256z" fill="#db0404"/><path d="M298.016 181.207c0 45.848-37.168 83.016-83.016 83.016-45.848 0-83.016-37.168-83.016-83.016 0-45.848 37.168-83.016 83.016-83.016 45.848 0 83.016 37.168 83.016 83.016zM72.473 385.91h285.054C346.672 316.961 287.004 264.223 215 264.223c-72.004 0-131.672 52.738-142.527 121.687z" fill="#fff"/><path d="M215 98.191c-.441 0-.875.028-1.316.036v165.961c.441.007.875.035 1.316.035 45.848 0 83.016-37.168 83.016-83.016 0-45.848-37.168-83.016-83.016-83.016zM215 264.223c-.437 0-.875.007-1.316.011V385.91h143.843C346.672 316.961 287.004 264.223 215 264.223z" fill="#dce1eb"/></g><g fill-rule="nonzero"><path d="M468.166 181.006c-16.67 12.606-40.403 9.312-53.01-7.357-12.606-16.67-9.312-40.403 7.357-53.01l-22.321-29.515-209.77 158.641 22.322 29.517c16.669-12.607 40.402-9.313 53.009 7.356 12.606 16.67 9.312 40.403-7.357 53.01l22.322 29.515 209.77-158.64-22.322-29.517z" fill="#ffd400"/><path d="M468.166 181.006c-16.67 12.606-40.403 9.312-53.01-7.357L265.754 286.638c12.606 16.669 9.312 40.402-7.357 53.009l22.322 29.516 209.77-158.64-22.322-29.517z" fill="#fdba12"/><g fill="#4a7aff"><path d="M295.723 240.62l23.619 17.324-10.334-27.37 9.869-7.462 13.281 43.676-7.796 5.896-38.554-24.564 9.915-7.5zM352.086 251.718l-25.846-34.175 9.386-7.099 25.846 34.176-9.386 7.098zM372.156 236.539l-25.844-34.175 14.728-11.14c6.69-5.059 16.055-2.682 20.46 3.141 4.586 6.065 4.43 15.264-2.31 20.36l-5.584 4.223 7.936 10.493-9.386 7.098zm-4.737-25.775l4.958-3.75c1.155-.873 1.667-2.697-.408-5.44-2.148-2.84-4.21-2.567-5.365-1.693l-4.718 3.568 5.533 7.315z"/></g></g></svg>