<?xml version="1.0" encoding="UTF-8" standalone="no"?>
<!DOCTYPE svg PUBLIC "-//W3C//DTD SVG 1.1//EN" "http://www.w3.org/Graphics/SVG/1.1/DTD/svg11.dtd">
<svg width="100%" height="100%" viewBox="0 0 1920 1540" version="1.1" xmlns="http://www.w3.org/2000/svg" xmlns:xlink="http://www.w3.org/1999/xlink" xml:space="preserve" xmlns:serif="http://www.serif.com/" style="fill-rule:evenodd;clip-rule:evenodd;stroke-linejoin:round;stroke-miterlimit:2;">
    <g id="парралакс-легкий" serif:id="парралакс легкий" transform="matrix(1.06777,0,0,1.04456,0.164369,-3977.97)">
        <g id="green">
            <path id="Многоугольник-1-копия-12" serif:id="Многоугольник 1 копия 12" d="M1564.12,4219.5L1595.86,4266.1L1549.82,4315.34L1564.12,4219.5Z" style="fill:rgb(97,197,67);fill-rule:nonzero;"/>
            <path id="Многоугольник-1-копия-18" serif:id="Многоугольник 1 копия 18" d="M141.936,4028.32L130.735,4049.43L102.404,4041.19L141.936,4028.32Z" style="fill:rgb(55,187,15);fill-rule:nonzero;"/>
            <path id="Многоугольник-1-копия-42" serif:id="Многоугольник 1 копия 42" d="M1796.02,4178.09L1784.82,4199.21L1756.49,4190.97L1796.02,4178.09Z" style="fill:rgb(55,187,15);fill-rule:nonzero;"/>
            <path id="Многоугольник-1-копия-52" serif:id="Многоугольник 1 копия 52" d="M644.019,4701.09L632.817,4722.21L604.487,4713.97L644.019,4701.09Z" style="fill:rgb(55,187,15);fill-rule:nonzero;"/>
            <path id="Многоугольник-1-копия-53" serif:id="Многоугольник 1 копия 53" d="M667.019,4978.09L655.817,4999.21L627.487,4990.97L667.019,4978.09Z" style="fill:rgb(55,187,15);fill-rule:nonzero;"/>
            <path id="Многоугольник-1-копия-41" serif:id="Многоугольник 1 копия 41" d="M504.174,3970.55L480.698,3958.94L511.076,3954.66L504.174,3970.55Z" style="fill:rgb(109,181,63);fill-rule:nonzero;"/>
            <g id="Многоугольник-1-копия-411" serif:id="Многоугольник 1 копия 41" transform="matrix(1,0,0,1,-480.596,460.337)">
                <path d="M504.174,3970.55L480.698,3958.94L511.076,3954.66L504.174,3970.55Z" style="fill:rgb(109,181,63);fill-rule:nonzero;"/>
            </g>
            <path id="Многоугольник-1-копия-4" serif:id="Многоугольник 1 копия 4" d="M1563.99,4010L1523.34,4111L1390,4053.91L1563.99,4010Z" style="fill:rgb(55,187,15);fill-rule:nonzero;"/>
            <path id="Многоугольник-1-копия-10" serif:id="Многоугольник 1 копия 10" d="M1250.33,4282.3L1280.56,4263.91L1305.12,4304.17L1250.33,4282.3Z" style="fill:rgb(55,187,15);fill-rule:nonzero;"/>
            <path id="Многоугольник-1-копия-2" serif:id="Многоугольник 1 копия 2" d="M1114.18,4347.36L971.453,4388.02L885.312,4230.18L1114.18,4347.36Z" style="fill:rgb(97,197,67);fill-rule:nonzero;"/>
        </g>
    </g>
</svg>
