<?xml version="1.0" encoding="UTF-8" standalone="no"?>
<!DOCTYPE svg PUBLIC "-//W3C//DTD SVG 1.1//EN" "http://www.w3.org/Graphics/SVG/1.1/DTD/svg11.dtd">
<svg width="100%" height="100%" viewBox="0 0 1920 1540" version="1.1" xmlns="http://www.w3.org/2000/svg" xmlns:xlink="http://www.w3.org/1999/xlink" xml:space="preserve" xmlns:serif="http://www.serif.com/" style="fill-rule:evenodd;clip-rule:evenodd;stroke-linejoin:round;stroke-miterlimit:2;">
    <g transform="matrix(1.0877,0,0,1.04456,0.166418,-3977.93)">
        <g id="парралакс-легкий" serif:id="парралакс легкий">
            <g id="blue">
                <path id="Многоугольник-1-копия" serif:id="Многоугольник 1 копия" d="M244.764,4177.88L98.083,4229.15L-0.153,4071.31L244.764,4177.88Z" style="fill:rgb(66,167,245);fill-rule:nonzero;"/>
                <path id="Многоугольник-1-копия-33" serif:id="Многоугольник 1 копия 33" d="M338.428,4020.49L314.951,4008.88L345.33,4004.6L338.428,4020.49Z" style="fill:rgb(67,167,245);fill-rule:nonzero;"/>
                <path id="Многоугольник-1-копия-56" serif:id="Многоугольник 1 копия 56" d="M565.428,5282.49L541.951,5270.88L572.33,5266.6L565.428,5282.49Z" style="fill:rgb(67,167,245);fill-rule:nonzero;"/>
                <path id="Многоугольник-1-копия-57" serif:id="Многоугольник 1 копия 57" d="M1646.43,4722.49L1622.95,4710.88L1653.33,4706.6L1646.43,4722.49Z" style="fill:rgb(67,167,245);fill-rule:nonzero;"/>
                <path id="Многоугольник-1-копия-58" serif:id="Многоугольник 1 копия 58" d="M253.428,4804.49L229.951,4792.88L260.33,4788.6L253.428,4804.49Z" style="fill:rgb(67,167,245);fill-rule:nonzero;"/>
                <path id="Многоугольник-1-копия-34" serif:id="Многоугольник 1 копия 34" d="M1434.23,4358.84L1410.76,4347.23L1441.13,4342.94L1434.23,4358.84Z" style="fill:rgb(67,167,245);fill-rule:nonzero;"/>
                <path id="Многоугольник-1-копия-51" serif:id="Многоугольник 1 копия 51" d="M1413.23,4965.84L1389.76,4954.23L1420.13,4949.95L1413.23,4965.84Z" style="fill:rgb(67,167,245);fill-rule:nonzero;"/>
                <path id="Многоугольник-1-копия-35" serif:id="Многоугольник 1 копия 35" d="M1342.38,4442.58L1318.9,4430.98L1349.28,4426.69L1342.38,4442.58Z" style="fill:rgb(67,167,245);fill-rule:nonzero;"/>
                <path id="Многоугольник-1-копия-55" serif:id="Многоугольник 1 копия 55" d="M618.379,4583.58L594.902,4571.97L625.281,4567.69L618.379,4583.58Z" style="fill:rgb(67,167,245);fill-rule:nonzero;"/>
                <path id="Многоугольник-1-копия-36" serif:id="Многоугольник 1 копия 36" d="M1758.14,4004.52L1734.66,3992.92L1765.04,3988.64L1758.14,4004.52Z" style="fill:rgb(67,167,245);fill-rule:nonzero;"/>
                <path id="Многоугольник-1-копия-38" serif:id="Многоугольник 1 копия 38" d="M625.839,3907.74L602.362,3896.13L632.74,3891.85L625.839,3907.74Z" style="fill:rgb(67,167,245);fill-rule:nonzero;"/>
                <path id="Многоугольник-1-копия-40" serif:id="Многоугольник 1 копия 40" d="M64.477,4023.85L41,4012.24L71.379,4007.96L64.477,4023.85Z" style="fill:rgb(67,167,245);fill-rule:nonzero;"/>
                <path id="Многоугольник-1-копия-23" serif:id="Многоугольник 1 копия 23" d="M247.521,4192.19L230.124,4146.59L276.968,4178.2L247.521,4192.19Z" style="fill:rgb(67,167,245);fill-rule:nonzero;"/>
                <path id="Многоугольник-1-копия-24" serif:id="Многоугольник 1 копия 24" d="M1327.43,3977.23L1310.04,3931.64L1356.88,3963.25L1327.43,3977.23Z" style="fill:rgb(67,167,245);fill-rule:nonzero;"/>
                <path id="Многоугольник-1-копия-25" serif:id="Многоугольник 1 копия 25" d="M480.85,4134.33L463.452,4088.74L510.296,4120.35L480.85,4134.33Z" style="fill:rgb(67,167,245);fill-rule:nonzero;"/>
                <path id="Многоугольник-1-копия-29" serif:id="Многоугольник 1 копия 29" d="M1441.87,4183.21L1464.99,4169.24L1483.77,4199.84L1441.87,4183.21Z" style="fill:rgb(67,167,245);fill-rule:nonzero;"/>
                <path id="Многоугольник-1-копия-37" serif:id="Многоугольник 1 копия 37" d="M1704.96,3824.15L1681.49,3812.54L1711.86,3808.26L1704.96,3824.15Z" style="fill:rgb(67,167,245);fill-rule:nonzero;"/>
            </g>
        </g>
    </g>
</svg>
