<?xml version="1.0" encoding="UTF-8" standalone="no"?>
<!DOCTYPE svg PUBLIC "-//W3C//DTD SVG 1.1//EN" "http://www.w3.org/Graphics/SVG/1.1/DTD/svg11.dtd">
<svg width="100%" height="100%" viewBox="0 0 1920 1540" version="1.1" xmlns="http://www.w3.org/2000/svg" xmlns:xlink="http://www.w3.org/1999/xlink" xml:space="preserve" xmlns:serif="http://www.serif.com/" style="fill-rule:evenodd;clip-rule:evenodd;stroke-linejoin:round;stroke-miterlimit:2;">
    <g id="парралакс-легкий" serif:id="парралакс легкий" transform="matrix(1.06777,0,0,1.04456,0.164369,-3977.97)">
        <g id="red">
            <path id="Многоугольник-1-копия-21" serif:id="Многоугольник 1 копия 21" d="M1642.75,3910.64L1631.55,3931.75L1603.22,3923.51L1642.75,3910.64Z" style="fill:rgb(213,5,5);fill-rule:nonzero;"/>
            <path id="Многоугольник-1-копия-20" serif:id="Многоугольник 1 копия 20" d="M906.452,4413.96L895.251,4435.08L866.92,4426.84L906.452,4413.96Z" style="fill:rgb(213,5,5);fill-rule:nonzero;"/>
            <g id="Многоугольник-1-копия-201" serif:id="Многоугольник 1 копия 20" transform="matrix(1,0,0,1,-710.433,197.072)">
                <path d="M906.452,4413.96L895.251,4435.08L866.92,4426.84L906.452,4413.96Z" style="fill:rgb(213,5,5);fill-rule:nonzero;"/>
            </g>
            <path id="Многоугольник-1-копия-43" serif:id="Многоугольник 1 копия 43" d="M1744.83,4402.24L1767.94,4388.27L1786.73,4418.87L1744.83,4402.24Z" style="fill:rgb(213,5,5);fill-rule:nonzero;"/>
            <path id="Многоугольник-1-копия-27" serif:id="Многоугольник 1 копия 27" d="M322.795,4202.54L345.913,4188.56L364.696,4219.16L322.795,4202.54Z" style="fill:rgb(213,5,5);fill-rule:nonzero;"/>
            <path id="Многоугольник-1-копия-28" serif:id="Многоугольник 1 копия 28" d="M1021.27,3882.05L1044.39,3868.07L1063.17,3898.67L1021.27,3882.05Z" style="fill:rgb(213,5,5);fill-rule:nonzero;"/>
            <path id="Многоугольник-1-копия-30" serif:id="Многоугольник 1 копия 30" d="M1407.85,4287.98L1430.97,4274L1449.76,4304.6L1407.85,4287.98Z" style="fill:rgb(213,5,5);fill-rule:nonzero;"/>
            <path id="Многоугольник-1-копия-54" serif:id="Многоугольник 1 копия 54" d="M1222.85,5184.98L1245.97,5171L1264.76,5201.6L1222.85,5184.98Z" style="fill:rgb(213,5,5);fill-rule:nonzero;"/>
            <path id="Многоугольник-1-копия-50" serif:id="Многоугольник 1 копия 50" d="M397.854,5083.98L420.972,5070L439.755,5100.6L397.854,5083.98Z" style="fill:rgb(213,5,5);fill-rule:nonzero;"/>
            <path id="Многоугольник-1-копия-31" serif:id="Многоугольник 1 копия 31" d="M218.977,3902.22L258.726,3878.01L291.02,3931.02L218.977,3902.22Z" style="fill:rgb(223,35,27);fill-rule:nonzero;"/>
            <g id="Многоугольник-1-копия-14" serif:id="Многоугольник 1 копия 14" transform="matrix(1,0,0,1,-112.383,-4.78669)">
                <path d="M1342,3937L1009,4156L639,3985L1342,3937Z" style="fill:rgb(213,5,5);fill-rule:nonzero;"/>
            </g>
        </g>
    </g>
</svg>
