<?xml version="1.0" encoding="iso-8859-1"?>
<!-- Generator: Adobe Illustrator 19.0.0, SVG Export Plug-In . SVG Version: 6.00 Build 0)  -->
<svg xmlns="http://www.w3.org/2000/svg" xmlns:xlink="http://www.w3.org/1999/xlink" version="1.1" id="Capa_1" x="0px" y="0px" viewBox="0 0 489.765 489.765" style="enable-background:new 0 0 489.765 489.765;" xml:space="preserve" width="512px" height="512px">
<g>
	<g>
		<path d="M482.912,392.04l-62.4-62.4c-8.3-8.3-20.8-8.3-29.1,0c-8.3,8.3-8.3,20.8,0,29.1l28.1,28.1h-72.8v-31    c0-11.4-9.4-20.8-20.8-20.8s-20.8,9.4-20.8,20.8v31h-71.8v-31c0-11.4-9.4-20.8-20.8-20.8c-11.4,0-20.8,9.4-20.8,20.8v31h-87.4    v-81.1h22.4c11.4,0,20.8-9.4,20.8-20.8s-9.4-20.8-20.8-20.8h-22.4v-71.8h22.4c11.4,0,20.8-9.4,20.8-20.8    c0-11.4-9.4-20.8-20.8-20.8h-22.4v-80.2l27,27c8.3,8.3,20.8,8.3,29.1,0s8.3-20.8,0-29.1l-62.4-62.4c-7.7-7.7-20.2-8.4-29.1,0    l-62.4,62.5c-8.3,8.3-8.3,20.8,0,29.1s20.8,8.3,29.1,0l27-27v336c0,11.4,9.4,20.8,20.8,20.8h335l-27,27c-8.3,8.3-8.3,20.8,0,29.1    c8.3,8.3,20.8,8.3,29.1,0l62.4-62.4C491.212,413.44,492.112,400.94,482.912,392.04z" fill="#007eff"/>
		<path d="M176.012,258.84c9.4,7.3,21.8,5.2,29.1-3.1l45.8-55.1l74.9,58.3c13.4,9.2,23.9,1,28.1-3.1l125.9-147.7    c7.3-9.4,6.2-21.8-2.1-29.1c-9.4-7.3-21.8-6.2-29.1,2.1l-114.4,134.1l-74.9-59.3c-8.3-6.2-20.8-5.2-28.1,3.1l-58.3,70.7    C165.612,239.14,167.712,251.64,176.012,258.84z" fill="#007eff"/>
	</g>
</g>
<g>
</g>
<g>
</g>
<g>
</g>
<g>
</g>
<g>
</g>
<g>
</g>
<g>
</g>
<g>
</g>
<g>
</g>
<g>
</g>
<g>
</g>
<g>
</g>
<g>
</g>
<g>
</g>
<g>
</g>
</svg>
