<?xml version="1.0" encoding="UTF-8" standalone="no"?>
<!DOCTYPE svg PUBLIC "-//W3C//DTD SVG 1.1//EN" "http://www.w3.org/Graphics/SVG/1.1/DTD/svg11.dtd">
<svg width="100%" height="100%" viewBox="0 0 400 1800" version="1.1" xmlns="http://www.w3.org/2000/svg" xmlns:xlink="http://www.w3.org/1999/xlink" xml:space="preserve" xmlns:serif="http://www.serif.com/" style="fill-rule:evenodd;clip-rule:evenodd;stroke-linejoin:round;stroke-miterlimit:2;">
    <g id="yellow" transform="matrix(0.216493,0,0,0.216493,-7.83965,489.291)">
        <g id="Многоугольник-2" serif:id="Многоугольник 2" transform="matrix(0.883944,0,0,1.69633,138.725,-13744.1)">
            <path d="M1251.2,8614.57L1196.83,8592.99L1220.01,8569.8L1251.2,8614.57Z" style="fill:rgb(255,213,42);fill-rule:nonzero;"/>
        </g>
        <g id="Многоугольник-21" serif:id="Многоугольник 2" transform="matrix(1.58749,0,0,0.441378,-1454.8,-2897.74)">
            <path d="M1238.66,8644.11L1196.83,8592.99L1220.01,8569.8L1238.66,8644.11Z" style="fill:rgb(255,213,42);fill-rule:nonzero;"/>
        </g>
        <g id="Многоугольник-22" serif:id="Многоугольник 2" transform="matrix(1.65282,0,0,0.419727,-1694.58,-2288.86)">
            <path d="M1228.5,8601.47L1196.83,8592.99L1221.64,8531.37L1228.5,8601.47Z" style="fill:rgb(255,213,42);fill-rule:nonzero;"/>
        </g>
        <g id="Многоугольник-23" serif:id="Многоугольник 2" transform="matrix(2.07987,0,0,1.31571,-910.778,-9752.02)">
            <path d="M1228.5,8601.47L1196.83,8592.99L1220.01,8569.8L1228.5,8601.47Z" style="fill:rgb(255,213,42);fill-rule:nonzero;"/>
        </g>
        <g id="Многоугольник-24" serif:id="Многоугольник 2" transform="matrix(-6.86384,-2.34576e-16,-7.07212e-17,-2.64683,9289.6,23612.1)">
            <path d="M1228.5,8601.47L1196.83,8592.99L1220.01,8569.8L1228.5,8601.47Z" style="fill:rgb(255,213,42);fill-rule:nonzero;"/>
        </g>
    </g>
    <g id="blue" transform="matrix(0.216493,0,0,0.515845,-75.7147,-1603.33)">
        <g id="Многоугольник-1-копия-56" serif:id="Многоугольник 1 копия 56" transform="matrix(1,0,0,1,-47.0913,-71.2112)">
            <path d="M565.428,5282.49L541.951,5270.88L572.33,5266.6L565.428,5282.49Z" style="fill:rgb(67,167,245);fill-rule:nonzero;"/>
        </g>
        <g id="Многоугольник-1-копия-57" serif:id="Многоугольник 1 копия 57" transform="matrix(1,0,0,1,484.552,652.8)">
            <path d="M1646.43,4722.49L1622.95,4710.88L1653.33,4706.6L1646.43,4722.49Z" style="fill:rgb(67,167,245);fill-rule:nonzero;"/>
        </g>
        <g id="Многоугольник-1-копия-51" serif:id="Многоугольник 1 копия 51" transform="matrix(1,0,0,1,417.253,125.625)">
            <path d="M1413.23,4965.84L1389.76,4954.23L1420.13,4949.95L1413.23,4965.84Z" style="fill:rgb(67,167,245);fill-rule:nonzero;"/>
        </g>
        <g id="Многоугольник-1-копия-55" serif:id="Многоугольник 1 копия 55" transform="matrix(1.64814,0,0,1.96377,-187.72,-4364.57)">
            <path d="M618.379,4583.58L594.902,4571.97L625.281,4567.69L618.379,4583.58Z" style="fill:rgb(67,167,245);fill-rule:nonzero;"/>
        </g>
        <g id="Многоугольник-1-копия-551" serif:id="Многоугольник 1 копия 55" transform="matrix(1,0,0,1,47.1093,401.55)">
            <path d="M618.379,4583.58L594.902,4571.97L625.281,4567.69L618.379,4583.58Z" style="fill:rgb(67,167,245);fill-rule:nonzero;"/>
        </g>
        <g id="Многоугольник-1-копия-36" serif:id="Многоугольник 1 копия 36" transform="matrix(1,0,0,1,430.713,468.849)">
            <path d="M1758.14,4004.52L1734.66,3992.92L1765.04,3988.64L1758.14,4004.52Z" style="fill:rgb(67,167,245);fill-rule:nonzero;"/>
        </g>
        <g id="Многоугольник-1-копия-37" serif:id="Многоугольник 1 копия 37" transform="matrix(1,0,0,1,-1237.21,747.019)">
            <path d="M1704.96,3824.15L1681.49,3812.54L1711.86,3808.26L1704.96,3824.15Z" style="fill:rgb(67,167,245);fill-rule:nonzero;"/>
        </g>
        <g id="Многоугольник-1-копия-25" serif:id="Многоугольник 1 копия 25" transform="matrix(1,0,0,1,1332.52,495.769)">
            <path d="M480.85,4134.33L463.452,4088.74L510.296,4120.35L480.85,4134.33Z" style="fill:rgb(67,167,245);fill-rule:nonzero;"/>
        </g>
        <g id="Многоугольник-1-копия-251" serif:id="Многоугольник 1 копия 25" transform="matrix(1,0,0,1,-112.165,895.076)">
            <path d="M480.85,4134.33L463.452,4088.74L510.296,4120.35L480.85,4134.33Z" style="fill:rgb(67,167,245);fill-rule:nonzero;"/>
        </g>
        <g id="Многоугольник-1-копия-29" serif:id="Многоугольник 1 копия 29" transform="matrix(1,0,0,1,486.796,650.556)">
            <path d="M1441.87,4183.21L1464.99,4169.24L1483.77,4199.84L1441.87,4183.21Z" style="fill:rgb(67,167,245);fill-rule:nonzero;"/>
        </g>
    </g>
    <g id="green" transform="matrix(0.185154,0,0,0.463638,-10.5824,-1393.17)">
        <g id="Многоугольник-1-копия-12" serif:id="Многоугольник 1 копия 12" transform="matrix(1,0,0,1,485.113,647.753)">
            <path d="M1564.12,4219.5L1595.86,4266.1L1549.82,4315.34L1564.12,4219.5Z" style="fill:rgb(97,197,67);fill-rule:nonzero;"/>
        </g>
        <g id="Многоугольник-1-копия-18" serif:id="Многоугольник 1 копия 18" transform="matrix(1,0,0,1,1752.16,1240.57)">
            <path d="M141.936,4028.32L130.735,4049.43L102.404,4041.19L141.936,4028.32Z" style="fill:rgb(55,187,15);fill-rule:nonzero;"/>
        </g>
        <g id="Многоугольник-1-копия-52" serif:id="Многоугольник 1 копия 52" transform="matrix(1,0,0,1,-264.712,-24.9099)">
            <path d="M644.019,4701.09L632.817,4722.21L604.487,4713.97L644.019,4701.09Z" style="fill:rgb(55,187,15);fill-rule:nonzero;"/>
        </g>
        <g id="Многоугольник-1-копия-53" serif:id="Многоугольник 1 копия 53" transform="matrix(0.890812,0,0,0.605845,109.413,1534)">
            <path d="M667.019,4978.09L655.817,4999.21L627.487,4990.97L667.019,4978.09Z" style="fill:rgb(55,187,15);fill-rule:nonzero;"/>
        </g>
        <g id="Многоугольник-1-копия-41" serif:id="Многоугольник 1 копия 41" transform="matrix(1,0,0,1,-118.691,1350.47)">
            <path d="M504.174,3970.55L480.698,3958.94L511.076,3954.66L504.174,3970.55Z" style="fill:rgb(109,181,63);fill-rule:nonzero;"/>
        </g>
        <g id="Многоугольник-1-копия-10" serif:id="Многоугольник 1 копия 10" transform="matrix(1,0,0,1,-1016.44,762.614)">
            <path d="M1250.33,4282.3L1280.56,4263.91L1305.12,4304.17L1250.33,4282.3Z" style="fill:rgb(55,187,15);fill-rule:nonzero;"/>
        </g>
    </g>
    <g id="red" transform="matrix(0.216493,0,0,0.365418,-75.7987,-947.944)">
        <g id="Многоугольник-1-копия-21" serif:id="Многоугольник 1 копия 21" transform="matrix(1,0,0,1,482.309,650.556)">
            <path d="M1642.75,3910.64L1631.55,3931.75L1603.22,3923.51L1642.75,3910.64Z" style="fill:rgb(213,5,5);fill-rule:nonzero;"/>
        </g>
        <g id="Многоугольник-1-копия-211" serif:id="Многоугольник 1 копия 21" transform="matrix(-0.433169,0,0,-1.34364,2714.94,10405.8)">
            <path d="M1642.75,3910.64L1631.55,3931.75L1603.22,3923.51L1642.75,3910.64Z" style="fill:rgb(213,5,5);fill-rule:nonzero;"/>
        </g>
        <g id="Многоугольник-1-копия-212" serif:id="Многоугольник 1 копия 21" transform="matrix(0.273199,0.961958,-0.961958,0.273199,3829.96,2134.41)">
            <path d="M1642.75,3910.64L1631.55,3931.75L1603.22,3923.51L1642.75,3910.64Z" style="fill:rgb(213,5,5);fill-rule:nonzero;"/>
        </g>
        <g id="Многоугольник-1-копия-50" serif:id="Многоугольник 1 копия 50" transform="matrix(1,0,0,1,266.392,11.2165)">
            <path d="M397.854,5083.98L420.972,5070L439.755,5100.6L397.854,5083.98Z" style="fill:rgb(213,5,5);fill-rule:nonzero;"/>
        </g>
    </g>
</svg>
