<?xml version="1.0" encoding="UTF-8" standalone="no"?>
<!DOCTYPE svg PUBLIC "-//W3C//DTD SVG 1.1//EN" "http://www.w3.org/Graphics/SVG/1.1/DTD/svg11.dtd">
<svg width="100%" height="100%" viewBox="0 0 1797 1475" version="1.1" xmlns="http://www.w3.org/2000/svg" xmlns:xlink="http://www.w3.org/1999/xlink" xml:space="preserve" xmlns:serif="http://www.serif.com/" style="fill-rule:evenodd;clip-rule:evenodd;stroke-linejoin:round;stroke-miterlimit:2;">
    <g transform="matrix(1,0,0,1,0.154,-3808.26)">
        <g id="парралакс-легкий" serif:id="парралакс легкий">
            <path id="big" d="M1250,4351L176,4167L1574,3891L1250,4351Z" style="fill:rgb(222,40,31);fill-rule:nonzero;"/>
            <g id="blue" transform="matrix(1,0,0,1,15.9025,0)">
                <path id="Многоугольник-1-копия" serif:id="Многоугольник 1 копия" d="M244.764,4177.88L98.083,4229.15L-0.153,4071.31L244.764,4177.88Z" style="fill:rgb(66,167,245);fill-rule:nonzero;"/>
                <path id="Многоугольник-1-копия-33" serif:id="Многоугольник 1 копия 33" d="M338.428,4020.49L314.951,4008.88L345.33,4004.6L338.428,4020.49Z" style="fill:rgb(67,167,245);fill-rule:nonzero;"/>
                <path id="Многоугольник-1-копия-56" serif:id="Многоугольник 1 копия 56" d="M565.428,5282.49L541.951,5270.88L572.33,5266.6L565.428,5282.49Z" style="fill:rgb(67,167,245);fill-rule:nonzero;"/>
                <path id="Многоугольник-1-копия-57" serif:id="Многоугольник 1 копия 57" d="M1646.43,4722.49L1622.95,4710.88L1653.33,4706.6L1646.43,4722.49Z" style="fill:rgb(67,167,245);fill-rule:nonzero;"/>
                <path id="Многоугольник-1-копия-58" serif:id="Многоугольник 1 копия 58" d="M253.428,4804.49L229.951,4792.88L260.33,4788.6L253.428,4804.49Z" style="fill:rgb(67,167,245);fill-rule:nonzero;"/>
                <path id="Многоугольник-1-копия-34" serif:id="Многоугольник 1 копия 34" d="M1434.23,4358.84L1410.76,4347.23L1441.13,4342.94L1434.23,4358.84Z" style="fill:rgb(67,167,245);fill-rule:nonzero;"/>
                <path id="Многоугольник-1-копия-51" serif:id="Многоугольник 1 копия 51" d="M1413.23,4965.84L1389.76,4954.23L1420.13,4949.95L1413.23,4965.84Z" style="fill:rgb(67,167,245);fill-rule:nonzero;"/>
                <path id="Многоугольник-1-копия-35" serif:id="Многоугольник 1 копия 35" d="M1342.38,4442.58L1318.9,4430.98L1349.28,4426.69L1342.38,4442.58Z" style="fill:rgb(67,167,245);fill-rule:nonzero;"/>
                <path id="Многоугольник-1-копия-55" serif:id="Многоугольник 1 копия 55" d="M618.379,4583.58L594.902,4571.97L625.281,4567.69L618.379,4583.58Z" style="fill:rgb(67,167,245);fill-rule:nonzero;"/>
                <path id="Многоугольник-1-копия-36" serif:id="Многоугольник 1 копия 36" d="M1758.14,4004.52L1734.66,3992.92L1765.04,3988.64L1758.14,4004.52Z" style="fill:rgb(67,167,245);fill-rule:nonzero;"/>
                <path id="Многоугольник-1-копия-37" serif:id="Многоугольник 1 копия 37" d="M1704.96,3824.15L1681.49,3812.54L1711.86,3808.26L1704.96,3824.15Z" style="fill:rgb(67,167,245);fill-rule:nonzero;"/>
                <path id="Многоугольник-1-копия-38" serif:id="Многоугольник 1 копия 38" d="M625.839,3907.74L602.362,3896.13L632.74,3891.85L625.839,3907.74Z" style="fill:rgb(67,167,245);fill-rule:nonzero;"/>
                <path id="Многоугольник-1-копия-40" serif:id="Многоугольник 1 копия 40" d="M64.477,4023.85L41,4012.24L71.379,4007.96L64.477,4023.85Z" style="fill:rgb(67,167,245);fill-rule:nonzero;"/>
                <path id="Многоугольник-1-копия-23" serif:id="Многоугольник 1 копия 23" d="M247.521,4192.19L230.124,4146.59L276.968,4178.2L247.521,4192.19Z" style="fill:rgb(67,167,245);fill-rule:nonzero;"/>
                <path id="Многоугольник-1-копия-24" serif:id="Многоугольник 1 копия 24" d="M1327.43,3977.23L1310.04,3931.64L1356.88,3963.25L1327.43,3977.23Z" style="fill:rgb(67,167,245);fill-rule:nonzero;"/>
                <path id="Многоугольник-1-копия-25" serif:id="Многоугольник 1 копия 25" d="M480.85,4134.33L463.452,4088.74L510.296,4120.35L480.85,4134.33Z" style="fill:rgb(67,167,245);fill-rule:nonzero;"/>
                <path id="Многоугольник-1-копия-29" serif:id="Многоугольник 1 копия 29" d="M1441.87,4183.21L1464.99,4169.24L1483.77,4199.84L1441.87,4183.21Z" style="fill:rgb(67,167,245);fill-rule:nonzero;"/>
            </g>
            <g id="green">
                <path id="Многоугольник-1-копия-12" serif:id="Многоугольник 1 копия 12" d="M1564.12,4219.5L1595.86,4266.1L1549.82,4315.34L1564.12,4219.5Z" style="fill:rgb(97,197,67);fill-rule:nonzero;"/>
                <path id="Многоугольник-1-копия-18" serif:id="Многоугольник 1 копия 18" d="M141.936,4028.32L130.735,4049.43L102.404,4041.19L141.936,4028.32Z" style="fill:rgb(55,187,15);fill-rule:nonzero;"/>
                <path id="Многоугольник-1-копия-42" serif:id="Многоугольник 1 копия 42" d="M1796.02,4178.09L1784.82,4199.21L1756.49,4190.97L1796.02,4178.09Z" style="fill:rgb(55,187,15);fill-rule:nonzero;"/>
                <path id="Многоугольник-1-копия-52" serif:id="Многоугольник 1 копия 52" d="M644.019,4701.09L632.817,4722.21L604.487,4713.97L644.019,4701.09Z" style="fill:rgb(55,187,15);fill-rule:nonzero;"/>
                <path id="Многоугольник-1-копия-53" serif:id="Многоугольник 1 копия 53" d="M667.019,4978.09L655.817,4999.21L627.487,4990.97L667.019,4978.09Z" style="fill:rgb(55,187,15);fill-rule:nonzero;"/>
                <path id="Многоугольник-1-копия-41" serif:id="Многоугольник 1 копия 41" d="M504.174,3970.55L480.698,3958.94L511.076,3954.66L504.174,3970.55Z" style="fill:rgb(109,181,63);fill-rule:nonzero;"/>
                <g id="Многоугольник-1-копия-411" serif:id="Многоугольник 1 копия 41" transform="matrix(1,0,0,1,-480.596,460.337)">
                    <path d="M504.174,3970.55L480.698,3958.94L511.076,3954.66L504.174,3970.55Z" style="fill:rgb(109,181,63);fill-rule:nonzero;"/>
                </g>
                <path id="Многоугольник-1-копия-4" serif:id="Многоугольник 1 копия 4" d="M1563.99,4010L1523.34,4111L1390,4053.91L1563.99,4010Z" style="fill:rgb(55,187,15);fill-rule:nonzero;"/>
                <path id="Многоугольник-1-копия-10" serif:id="Многоугольник 1 копия 10" d="M1250.33,4282.3L1280.56,4263.91L1305.12,4304.17L1250.33,4282.3Z" style="fill:rgb(55,187,15);fill-rule:nonzero;"/>
                <path id="Многоугольник-1-копия-2" serif:id="Многоугольник 1 копия 2" d="M1114.18,4347.36L971.453,4388.02L885.312,4230.18L1114.18,4347.36Z" style="fill:rgb(97,197,67);fill-rule:nonzero;"/>
            </g>
            <g id="red">
                <path id="Многоугольник-1-копия-21" serif:id="Многоугольник 1 копия 21" d="M1642.75,3910.64L1631.55,3931.75L1603.22,3923.51L1642.75,3910.64Z" style="fill:rgb(213,5,5);fill-rule:nonzero;"/>
                <g id="Многоугольник-1-копия-14" serif:id="Многоугольник 1 копия 14" transform="matrix(1,0,0,1,-57.7835,-18.2474)">
                    <path d="M1342,3937L1009,4156L639,3985L1342,3937Z" style="fill:rgb(213,5,5);fill-rule:nonzero;"/>
                </g>
                <path id="Многоугольник-1-копия-20" serif:id="Многоугольник 1 копия 20" d="M906.452,4413.96L895.251,4435.08L866.92,4426.84L906.452,4413.96Z" style="fill:rgb(213,5,5);fill-rule:nonzero;"/>
                <g id="Многоугольник-1-копия-201" serif:id="Многоугольник 1 копия 20" transform="matrix(1,0,0,1,-710.433,197.072)">
                    <path d="M906.452,4413.96L895.251,4435.08L866.92,4426.84L906.452,4413.96Z" style="fill:rgb(213,5,5);fill-rule:nonzero;"/>
                </g>
                <path id="Многоугольник-1-копия-43" serif:id="Многоугольник 1 копия 43" d="M1744.83,4402.24L1767.94,4388.27L1786.73,4418.87L1744.83,4402.24Z" style="fill:rgb(213,5,5);fill-rule:nonzero;"/>
                <path id="Многоугольник-1-копия-27" serif:id="Многоугольник 1 копия 27" d="M322.795,4202.54L345.913,4188.56L364.696,4219.16L322.795,4202.54Z" style="fill:rgb(213,5,5);fill-rule:nonzero;"/>
                <path id="Многоугольник-1-копия-28" serif:id="Многоугольник 1 копия 28" d="M1021.27,3882.05L1044.39,3868.07L1063.17,3898.67L1021.27,3882.05Z" style="fill:rgb(213,5,5);fill-rule:nonzero;"/>
                <path id="Многоугольник-1-копия-30" serif:id="Многоугольник 1 копия 30" d="M1407.85,4287.98L1430.97,4274L1449.76,4304.6L1407.85,4287.98Z" style="fill:rgb(213,5,5);fill-rule:nonzero;"/>
                <path id="Многоугольник-1-копия-54" serif:id="Многоугольник 1 копия 54" d="M1222.85,5184.98L1245.97,5171L1264.76,5201.6L1222.85,5184.98Z" style="fill:rgb(213,5,5);fill-rule:nonzero;"/>
                <path id="Многоугольник-1-копия-50" serif:id="Многоугольник 1 копия 50" d="M397.854,5083.98L420.972,5070L439.755,5100.6L397.854,5083.98Z" style="fill:rgb(213,5,5);fill-rule:nonzero;"/>
                <path id="Многоугольник-1-копия-31" serif:id="Многоугольник 1 копия 31" d="M218.977,3902.22L258.726,3878.01L291.02,3931.02L218.977,3902.22Z" style="fill:rgb(223,35,27);fill-rule:nonzero;"/>
            </g>
        </g>
    </g>
</svg>
