<?xml version="1.0" encoding="UTF-8" standalone="no"?>
<!DOCTYPE svg PUBLIC "-//W3C//DTD SVG 1.1//EN" "http://www.w3.org/Graphics/SVG/1.1/DTD/svg11.dtd">
<svg width="100%" height="100%" viewBox="0 0 1242 2208" version="1.1" xmlns="http://www.w3.org/2000/svg" xmlns:xlink="http://www.w3.org/1999/xlink" xml:space="preserve" xmlns:serif="http://www.serif.com/" style="fill-rule:evenodd;clip-rule:evenodd;stroke-linejoin:round;stroke-miterlimit:2;">
    <rect id="Artboard1" x="0" y="0" width="1242" height="2208" style="fill:none;"/>
    <clipPath id="_clip1">
        <rect id="Artboard11" serif:id="Artboard1" x="0" y="0" width="1242" height="2208"/>
    </clipPath>
    <g clip-path="url(#_clip1)">
        <g id="фон" transform="matrix(0.648969,0,0,2.0863,-7.09219,-8182.99)">
            <path d="M8.196,4235.73L0,3921L1922,3921L1924.6,4248.44L1249,4347L8.196,4235.73Z" style="fill:rgb(255,211,37);"/>
        </g>
        <g id="big" transform="matrix(1.63443,0.14014,-0.14768,1.72237,-458.129,-6780.14)">
            <path d="M1261.19,4339.8L176,4167L1574,3891L1261.19,4339.8Z" style="fill:rgb(222,40,31);fill-rule:nonzero;"/>
        </g>
        <g id="green" transform="matrix(0.908715,0,0,1,-177.165,-3684.15)">
            <path id="Многоугольник-1-копия-12" serif:id="Многоугольник 1 копия 12" d="M1564.12,4219.5L1595.86,4266.1L1549.82,4315.34L1564.12,4219.5Z" style="fill:rgb(97,197,67);fill-rule:nonzero;"/>
            <path id="Многоугольник-1-копия-52" serif:id="Многоугольник 1 копия 52" d="M644.019,4701.09L632.817,4722.21L604.487,4713.97L644.019,4701.09Z" style="fill:rgb(55,187,15);fill-rule:nonzero;"/>
            <g id="Многоугольник-1-копия-521" serif:id="Многоугольник 1 копия 52" transform="matrix(1,0,0,1,836.559,-970.743)">
                <path d="M644.019,4701.09L632.817,4722.21L604.487,4713.97L644.019,4701.09Z" style="fill:rgb(55,187,15);fill-rule:nonzero;"/>
            </g>
            <g id="Многоугольник-1-копия-53" serif:id="Многоугольник 1 копия 53" transform="matrix(1,0,0,1,543.885,-312.499)">
                <path d="M667.019,4978.09L655.817,4999.21L627.487,4990.97L667.019,4978.09Z" style="fill:rgb(55,187,15);fill-rule:nonzero;"/>
            </g>
            <path id="Многоугольник-1-копия-41" serif:id="Многоугольник 1 копия 41" d="M504.174,3970.55L480.698,3958.94L511.076,3954.66L504.174,3970.55Z" style="fill:rgb(109,181,63);fill-rule:nonzero;"/>
            <g id="Многоугольник-1-копия-4" serif:id="Многоугольник 1 копия 4" transform="matrix(1,0,0,1,78.0463,57.624)">
                <path d="M1563.99,4010L1523.34,4111L1390,4053.91L1563.99,4010Z" style="fill:rgb(55,187,15);fill-rule:nonzero;"/>
            </g>
            <path id="Многоугольник-1-копия-10" serif:id="Многоугольник 1 копия 10" d="M1250.33,4282.3L1280.56,4263.91L1305.12,4304.17L1250.33,4282.3Z" style="fill:rgb(55,187,15);fill-rule:nonzero;"/>
            <g id="Многоугольник-1-копия-2" serif:id="Многоугольник 1 копия 2" transform="matrix(-0.907525,0,0,1,1552.17,132.979)">
                <path d="M1114.18,4347.36L971.453,4388.02L885.312,4230.18L1114.18,4347.36Z" style="fill:rgb(97,197,67);fill-rule:nonzero;"/>
            </g>
        </g>
        <g id="red" transform="matrix(0.908715,0,0,1,-163.867,-3677.5)">
            <g id="Многоугольник-1-копия-14" serif:id="Многоугольник 1 копия 14" transform="matrix(1.73088,0.0909273,-0.108181,1.70051,-400.003,-3027.27)">
                <path d="M1342,3937L1009,4156L639,3985L1342,3937Z" style="fill:rgb(213,5,5);fill-rule:nonzero;"/>
            </g>
            <g id="Многоугольник-1-копия-20" serif:id="Многоугольник 1 копия 20" transform="matrix(1,0,0,1,-710.433,197.072)">
                <path d="M906.452,4413.96L895.251,4435.08L866.92,4426.84L906.452,4413.96Z" style="fill:rgb(213,5,5);fill-rule:nonzero;"/>
            </g>
            <path id="Многоугольник-1-копия-28" serif:id="Многоугольник 1 копия 28" d="M1021.27,3882.05L1044.39,3868.07L1063.17,3898.67L1021.27,3882.05Z" style="fill:rgb(213,5,5);fill-rule:nonzero;"/>
            <path id="Многоугольник-1-копия-30" serif:id="Многоугольник 1 копия 30" d="M1407.85,4287.98L1430.97,4274L1449.76,4304.6L1407.85,4287.98Z" style="fill:rgb(213,5,5);fill-rule:nonzero;"/>
            <g id="Многоугольник-1-копия-301" serif:id="Многоугольник 1 копия 30" transform="matrix(0.900022,0,0,0.2783,-1017.75,2537.12)">
                <path d="M1407.85,4287.98L1430.97,4274L1449.76,4304.6L1407.85,4287.98Z" style="fill:rgb(213,5,5);fill-rule:nonzero;"/>
            </g>
            <path id="Многоугольник-1-копия-54" serif:id="Многоугольник 1 копия 54" d="M1222.85,5184.98L1245.97,5171L1264.76,5201.6L1222.85,5184.98Z" style="fill:rgb(213,5,5);fill-rule:nonzero;"/>
            <path id="Многоугольник-1-копия-50" serif:id="Многоугольник 1 копия 50" d="M397.854,5083.98L420.972,5070L439.755,5100.6L397.854,5083.98Z" style="fill:rgb(213,5,5);fill-rule:nonzero;"/>
            <path id="Многоугольник-1-копия-31" serif:id="Многоугольник 1 копия 31" d="M218.977,3902.22L258.726,3878.01L291.02,3931.02L218.977,3902.22Z" style="fill:rgb(223,35,27);fill-rule:nonzero;"/>
        </g>
        <g id="blue" transform="matrix(0.924912,0,0,1,-177.162,-3684.15)">
            <path id="Многоугольник-1-копия-33" serif:id="Многоугольник 1 копия 33" d="M338.428,4020.49L314.951,4008.88L345.33,4004.6L338.428,4020.49Z" style="fill:rgb(67,167,245);fill-rule:nonzero;"/>
            <path id="Многоугольник-1-копия-56" serif:id="Многоугольник 1 копия 56" d="M565.428,5282.49L541.951,5270.88L572.33,5266.6L565.428,5282.49Z" style="fill:rgb(67,167,245);fill-rule:nonzero;"/>
            <path id="Многоугольник-1-копия-58" serif:id="Многоугольник 1 копия 58" d="M253.428,4804.49L229.951,4792.88L260.33,4788.6L253.428,4804.49Z" style="fill:rgb(67,167,245);fill-rule:nonzero;"/>
            <path id="Многоугольник-1-копия-34" serif:id="Многоугольник 1 копия 34" d="M1434.23,4358.84L1410.76,4347.23L1441.13,4342.94L1434.23,4358.84Z" style="fill:rgb(67,167,245);fill-rule:nonzero;"/>
            <path id="Многоугольник-1-копия-35" serif:id="Многоугольник 1 копия 35" d="M1342.38,4442.58L1318.9,4430.98L1349.28,4426.69L1342.38,4442.58Z" style="fill:rgb(67,167,245);fill-rule:nonzero;"/>
            <g id="Многоугольник-1-копия-55" serif:id="Многоугольник 1 копия 55" transform="matrix(1,0,0,1,-179.718,-101.95)">
                <path d="M618.379,4583.58L594.902,4571.97L625.281,4567.69L618.379,4583.58Z" style="fill:rgb(67,167,245);fill-rule:nonzero;"/>
            </g>
            <g id="Многоугольник-1-копия-38" serif:id="Многоугольник 1 копия 38" transform="matrix(1,0,0,1,-240.467,-131.631)">
                <path d="M625.839,3907.74L602.362,3896.13L632.74,3891.85L625.839,3907.74Z" style="fill:rgb(67,167,245);fill-rule:nonzero;"/>
            </g>
            <g id="Многоугольник-1-копия-381" serif:id="Многоугольник 1 копия 38" transform="matrix(1,0,0,1,647.789,-167.035)">
                <path d="M625.839,3907.74L602.362,3896.13L632.74,3891.85L625.839,3907.74Z" style="fill:rgb(67,167,245);fill-rule:nonzero;"/>
            </g>
            <path id="Многоугольник-1-копия-23" serif:id="Многоугольник 1 копия 23" d="M247.521,4192.19L230.124,4146.59L276.968,4178.2L247.521,4192.19Z" style="fill:rgb(67,167,245);fill-rule:nonzero;"/>
            <path id="Многоугольник-1-копия-24" serif:id="Многоугольник 1 копия 24" d="M1327.43,3977.23L1310.04,3931.64L1356.88,3963.25L1327.43,3977.23Z" style="fill:rgb(67,167,245);fill-rule:nonzero;"/>
            <g id="Многоугольник-1-копия-25" serif:id="Многоугольник 1 копия 25" transform="matrix(1,0,0,1,877.023,720.3)">
                <path d="M480.85,4134.33L463.452,4088.74L510.296,4120.35L480.85,4134.33Z" style="fill:rgb(67,167,245);fill-rule:nonzero;"/>
            </g>
            <path id="Многоугольник-1-копия-29" serif:id="Многоугольник 1 копия 29" d="M1441.87,4183.21L1464.99,4169.24L1483.77,4199.84L1441.87,4183.21Z" style="fill:rgb(67,167,245);fill-rule:nonzero;"/>
        </g>
    </g>
</svg>
