<?xml version="1.0" encoding="UTF-8" standalone="no"?>
<!DOCTYPE svg PUBLIC "-//W3C//DTD SVG 1.1//EN" "http://www.w3.org/Graphics/SVG/1.1/DTD/svg11.dtd">
<svg width="100%" height="100%" viewBox="0 0 989 1576" version="1.1" xmlns="http://www.w3.org/2000/svg" xmlns:xlink="http://www.w3.org/1999/xlink" xml:space="preserve" xmlns:serif="http://www.serif.com/" style="fill-rule:evenodd;clip-rule:evenodd;stroke-linecap:round;stroke-linejoin:round;stroke-miterlimit:1.5;">
    <g transform="matrix(1,0,0,1,-42.9044,-88.147)">
        <g id="road" transform="matrix(1.39633,0,0,2.89281,-1021.2,-13107)">
            <g transform="matrix(1,0,0,1,647.07,4417.55)">
                <path d="M173.939,197.768C173.939,197.768 183.085,192.985 186.8,192.66" style="fill:rgb(255,0,0);stroke:rgb(190,190,190);stroke-width:2.18px;"/>
            </g>
            <g transform="matrix(1.57021,0.648102,-0.686081,1.66223,714.257,4164.86)">
                <path d="M173.939,197.768C173.939,197.768 183.085,192.985 186.8,192.66" style="fill:rgb(190,190,190);stroke:rgb(190,190,190);stroke-width:1.25px;"/>
            </g>
            <g transform="matrix(1,0,0,1,647.784,4417.43)">
                <path d="M244.771,193.746C244.771,193.746 259.643,202.361 260.731,203.812" style="fill:none;stroke:rgb(190,190,190);stroke-width:2.18px;"/>
            </g>
            <g transform="matrix(1,0,0,1,647.784,4417.43)">
                <path d="M272.937,212.846L283.563,222.41" style="fill:none;stroke:rgb(190,190,190);stroke-width:2.18px;"/>
            </g>
            <g transform="matrix(1,0,0,1,647.784,4417.43)">
                <path d="M297.62,232.449L313.118,241.858" style="fill:none;stroke:rgb(190,190,190);stroke-width:2.18px;"/>
            </g>
            <g transform="matrix(1,0,0,1,647.784,4417.43)">
                <path d="M327.785,248.777L348.54,259.846" style="fill:none;stroke:rgb(190,190,190);stroke-width:2.18px;"/>
            </g>
            <g transform="matrix(1,0,0,1,647.784,4417.43)">
                <path d="M363.054,265.394L386.716,274.462" style="fill:none;stroke:rgb(190,190,190);stroke-width:2.18px;"/>
            </g>
            <g transform="matrix(1,0,0,1,647.784,4417.43)">
                <path d="M402.869,278.713L421.714,284.239" style="fill:none;stroke:rgb(190,190,190);stroke-width:2.18px;"/>
            </g>
            <g transform="matrix(1,0,0,1,647.784,4417.43)">
                <path d="M439.092,288.915L455.953,291.748" style="fill:none;stroke:rgb(190,190,190);stroke-width:2.18px;"/>
            </g>
            <g transform="matrix(1,0,0,1,647.784,4417.43)">
                <path d="M471.397,294.299L492.934,296.708" style="fill:none;stroke:rgb(190,190,190);stroke-width:2.18px;"/>
            </g>
            <g transform="matrix(1,0,0,1,647.784,4417.43)">
                <path d="M508.905,297.133L530.867,296.708" style="fill:none;stroke:rgb(190,190,190);stroke-width:2.18px;"/>
            </g>
            <g transform="matrix(1,0,0,1,647.784,4417.43)">
                <path d="M547.444,294.299L570.398,287.356" style="fill:none;stroke:rgb(190,190,190);stroke-width:2.18px;"/>
            </g>
            <g transform="matrix(1,0,0,1,647.784,4417.43)">
                <path d="M586.193,281.712L608.11,276.399" style="fill:none;stroke:rgb(190,190,190);stroke-width:2.18px;"/>
            </g>
            <g transform="matrix(1,0,0,1,647.784,4417.43)">
                <path d="M624.272,272.636L649.289,269.979" style="fill:none;stroke:rgb(190,190,190);stroke-width:2.18px;"/>
            </g>
            <g transform="matrix(1,0,0,1,647.784,4417.43)">
                <path d="M667.443,268.208L690.689,268.872" style="fill:none;stroke:rgb(190,190,190);stroke-width:2.18px;"/>
            </g>
            <g transform="matrix(1,0,0,1,647.784,4417.43)">
                <path d="M708.367,269.757L723.643,273.078" style="fill:none;stroke:rgb(190,190,190);stroke-width:2.18px;"/>
            </g>
            <g transform="matrix(1,0,0,1,647.784,4417.43)">
                <path d="M740.026,275.292L756.63,281.491" style="fill:none;stroke:rgb(190,190,190);stroke-width:2.18px;"/>
            </g>
            <g transform="matrix(1,0,0,1,647.784,4417.43)">
                <path d="M770.919,288.523C770.919,288.523 780.259,293.329 781.891,294.78" style="fill:none;stroke:rgb(190,190,190);stroke-width:2.18px;"/>
            </g>
            <g transform="matrix(1,0,0,1,647.784,4417.43)">
                <path d="M795.403,305.027L804.743,314.911" style="fill:none;stroke:rgb(190,190,190);stroke-width:2.18px;"/>
            </g>
            <g transform="matrix(1,0,0,1,647.784,4417.43)">
                <path d="M813.811,327.226L817.801,333.973" style="fill:none;stroke:rgb(190,190,190);stroke-width:2.18px;"/>
            </g>
            <g transform="matrix(0.832276,0.267584,-1.14849,0.832276,1166.8,4272.55)">
                <path d="M813.811,327.226L817.801,333.973" style="fill:none;stroke:rgb(190,190,190);stroke-width:2.18px;"/>
            </g>
            <g transform="matrix(0.753161,0.31753,-1.36286,0.753161,1273.17,4290.81)">
                <path d="M813.811,327.226L817.801,333.973" style="fill:none;stroke:rgb(190,190,190);stroke-width:2.18px;"/>
            </g>
            <g transform="matrix(0.827407,0.271079,-1.16349,0.827407,1136.24,4316.3)">
                <path d="M813.811,327.226L817.801,333.973" style="fill:none;stroke:rgb(190,190,190);stroke-width:2.18px;"/>
            </g>
            <g transform="matrix(0.825539,0.272402,-1.16917,0.825539,1185.81,4264.38)">
                <path d="M824.04,349.207L827.377,360.96" style="fill:none;stroke:rgb(190,190,190);stroke-width:2.18px;"/>
            </g>
            <g transform="matrix(-0.963471,0.129269,-0.554834,-0.963471,2449.73,5131.61)">
                <path d="M825.819,415.072C825.819,415.072 825.026,423.913 820.378,431.281" style="fill:none;stroke:rgb(190,190,190);stroke-width:2.18px;"/>
            </g>
            <g transform="matrix(0.68465,-0.351818,1.51003,0.68465,198.753,4824.32)">
                <path d="M811.31,446.357C811.31,446.357 806.55,453.838 798.048,461.206" style="fill:none;stroke:rgb(190,190,190);stroke-width:2.18px;"/>
            </g>
            <g transform="matrix(0.950526,0.149945,-0.643575,0.950526,990.163,4328.71)">
                <path d="M784.755,471.181L775.687,476.735" style="fill:none;stroke:rgb(190,190,190);stroke-width:2.18px;"/>
            </g>
            <g transform="matrix(0.377422,0.446989,-1.91851,0.377422,1822.48,4387.92)">
                <path d="M784.755,471.181L775.687,476.735" style="fill:none;stroke:rgb(190,190,190);stroke-width:2.18px;"/>
            </g>
            <g transform="matrix(0.377422,0.446989,-1.91851,0.377422,1784.22,4382.73)">
                <path d="M784.755,471.181L775.687,476.735" style="fill:none;stroke:rgb(190,190,190);stroke-width:2.18px;"/>
            </g>
            <g transform="matrix(-0.920485,0.188624,-0.809587,-0.920485,2041.49,5223.4)">
                <path d="M784.755,471.181L775.687,476.735" style="fill:none;stroke:rgb(190,190,190);stroke-width:2.18px;"/>
            </g>
            <g transform="matrix(0.957634,-0.139009,0.596634,0.957634,-100.244,4602.86)">
                <path d="M784.755,471.181L775.687,476.735" style="fill:none;stroke:rgb(190,190,190);stroke-width:2.18px;"/>
            </g>
            <g transform="matrix(0.994899,-0.0486927,0.208993,0.994899,43.1659,4529.79)">
                <path d="M784.755,471.181L775.687,476.735" style="fill:none;stroke:rgb(190,190,190);stroke-width:2.18px;"/>
            </g>
            <g transform="matrix(0.377422,0.446989,-1.91851,0.377422,1744.02,4376.91)">
                <path d="M784.755,471.181L769.773,480.634" style="fill:none;stroke:rgb(190,190,190);stroke-width:2.18px;"/>
                <g transform="matrix(1,0,0,1,-27.3132,18.6591)">
                    <path d="M784.755,471.181L769.773,480.634" style="fill:none;stroke:rgb(190,190,190);stroke-width:2.18px;"/>
                </g>
            </g>
            <g transform="matrix(1,0,0,1,647.784,4417.43)">
                <path d="M759.251,482.743L745.875,486.257" style="fill:none;stroke:rgb(190,190,190);stroke-width:2.18px;"/>
            </g>
            <g transform="matrix(1,0,0,1,653.932,4350.67)">
                <path d="M247.363,623.582L232.514,628.683" style="fill:none;stroke:rgb(190,190,190);stroke-width:2.18px;"/>
            </g>
            <g transform="matrix(1,0,0,1,653.932,4350.67)">
                <path d="M218.47,633.217L199.653,638.771" style="fill:none;stroke:rgb(190,190,190);stroke-width:2.18px;"/>
            </g>
            <g transform="matrix(1,0,0,1,653.932,4350.67)">
                <path d="M185.031,642.739L162.701,649.653" style="fill:none;stroke:rgb(190,190,190);stroke-width:2.18px;"/>
            </g>
            <g transform="matrix(1,0,0,1,653.932,4350.67)">
                <path d="M148.884,654.864C148.884,654.864 135.14,661.949 131.314,665.349" style="fill:none;stroke:rgb(190,190,190);stroke-width:2.18px;"/>
            </g>
            <g transform="matrix(1,0,0,1,653.932,4350.67)">
                <path d="M118.704,677.535C118.704,677.535 111.619,683.663 109.919,701.48" style="fill:none;stroke:rgb(190,190,190);stroke-width:2.18px;"/>
            </g>
            <g transform="matrix(1,0,0,1,653.932,4350.67)">
                <path d="M111.761,718.022C111.761,718.022 111.903,723.831 122.529,733.324" style="fill:none;stroke:rgb(190,190,190);stroke-width:2.18px;"/>
            </g>
            <g transform="matrix(1,0,0,1,653.932,4350.67)">
                <path d="M134.006,741.684C135.565,742.534 144.916,749.052 151.151,750.185" style="fill:none;stroke:rgb(190,190,190);stroke-width:2.18px;"/>
            </g>
            <g transform="matrix(1.14172,0,0,0.551096,613.854,4501.24)">
                <circle cx="174.166" cy="211.429" r="9.409" style="fill:rgb(190,190,190);"/>
            </g>
            <g transform="matrix(1.14172,0,0,0.551096,1224.52,4689.24)">
                <circle cx="174.166" cy="211.429" r="9.409" style="fill:rgb(190,190,190);"/>
            </g>
            <g transform="matrix(1.14172,0,0,0.551096,613.789,4984.11)">
                <circle cx="174.166" cy="211.429" r="9.409" style="fill:rgb(190,190,190);"/>
            </g>
            <g transform="matrix(0.0056487,-0.48268,1.86934,0.00509695,-9.54262,4964.5)">
                <path d="M111.761,718.022C111.761,718.022 111.903,723.831 122.529,733.324" style="fill:none;stroke:rgb(190,190,190);stroke-width:2.18px;"/>
            </g>
            <g transform="matrix(-0.657321,-0.363759,1.40878,-0.593116,498.669,5359.47)">
                <path d="M113.581,724.191C113.581,724.191 115.208,728.919 122.529,733.324" style="fill:none;stroke:rgb(190,190,190);stroke-width:2.18px;"/>
            </g>
            <g transform="matrix(-0.941749,-0.141364,0.547479,-0.849763,1161.05,5504.89)">
                <path d="M113.581,724.191C113.581,724.191 115.208,728.919 122.529,733.324" style="fill:none;stroke:rgb(190,190,190);stroke-width:2.18px;"/>
            </g>
            <g transform="matrix(0.380364,-0.446408,1.72887,0.343212,-44.7391,4722.35)">
                <path d="M111.761,718.022C111.761,718.022 111.903,723.831 122.529,733.324" style="fill:none;stroke:rgb(190,190,190);stroke-width:2.18px;"/>
            </g>
            <g transform="matrix(-0.260758,0.465989,-1.8047,-0.235288,2371.72,5012.48)">
                <path d="M111.761,718.022C111.761,718.022 111.903,723.831 122.529,733.324" style="fill:none;stroke:rgb(190,190,190);stroke-width:2.18px;"/>
            </g>
            <g transform="matrix(0.175082,0.475232,-1.8405,0.15798,2303.44,4733.64)">
                <path d="M111.761,718.022C111.761,718.022 111.903,723.831 122.529,733.324" style="fill:none;stroke:rgb(190,190,190);stroke-width:2.18px;"/>
            </g>
            <g transform="matrix(0.479845,0.423488,-1.6401,0.432976,2091.96,4553.71)">
                <path d="M111.761,718.022C111.761,718.022 111.903,723.831 122.529,733.324" style="fill:none;stroke:rgb(190,190,190);stroke-width:2.18px;"/>
            </g>
            <g transform="matrix(0.147611,-0.435931,1.68829,0.133193,58.3013,4871.65)">
                <path d="M111.761,718.022C111.761,718.022 111.903,723.831 122.529,733.324" style="fill:none;stroke:rgb(190,190,190);stroke-width:2.18px;"/>
            </g>
            <g transform="matrix(0.193112,0,0,0.0896687,1373.59,4747.35)">
                <path d="M256,0C153.755,0 70.573,83.182 70.573,185.426C70.573,312.314 236.512,498.593 243.577,506.461C250.213,513.852 261.799,513.839 268.423,506.461C275.488,498.593 441.427,312.314 441.427,185.426C441.425,83.182 358.244,0 256,0ZM256,278.719C204.558,278.719 162.708,236.868 162.708,185.426C162.708,133.984 204.559,92.134 256,92.134C307.441,92.134 349.291,133.985 349.291,185.427C349.291,236.869 307.441,278.719 256,278.719Z" style="fill:rgb(39,214,5);fill-rule:nonzero;"/>
            </g>
            <g transform="matrix(0.194315,0,0,0.0902273,762.402,4561.35)">
                <path d="M256,0C153.755,0 70.573,83.182 70.573,185.426C70.573,312.314 236.512,498.593 243.577,506.461C250.213,513.852 261.799,513.839 268.423,506.461C275.488,498.593 441.427,312.314 441.427,185.426C441.425,83.182 358.244,0 256,0ZM256,278.719C204.558,278.719 162.708,236.868 162.708,185.426C162.708,133.984 204.559,92.134 256,92.134C307.441,92.134 349.291,133.985 349.291,185.427C349.291,236.869 307.441,278.719 256,278.719Z" style="fill:rgb(67,168,246);fill-rule:nonzero;"/>
            </g>
            <g transform="matrix(0.193112,0,0,0.0896687,764.931,5043.03)">
                <path d="M256,0C153.755,0 70.573,83.182 70.573,185.426C70.573,312.314 236.512,498.593 243.577,506.461C250.213,513.852 261.799,513.839 268.423,506.461C275.488,498.593 441.427,312.314 441.427,185.426C441.425,83.182 358.244,0 256,0ZM256,278.719C204.558,278.719 162.708,236.868 162.708,185.426C162.708,133.984 204.559,92.134 256,92.134C307.441,92.134 349.291,133.985 349.291,185.427C349.291,236.869 307.441,278.719 256,278.719Z" style="fill:rgb(214,5,5);fill-rule:nonzero;"/>
            </g>
        </g>
    </g>
</svg>
