<?xml version="1.0" encoding="UTF-8" standalone="no"?>
<!DOCTYPE svg PUBLIC "-//W3C//DTD SVG 1.1//EN" "http://www.w3.org/Graphics/SVG/1.1/DTD/svg11.dtd">
<svg width="100%" height="100%" viewBox="0 0 723 644" version="1.1" xmlns="http://www.w3.org/2000/svg" xmlns:xlink="http://www.w3.org/1999/xlink" xml:space="preserve" xmlns:serif="http://www.serif.com/" style="fill-rule:evenodd;clip-rule:evenodd;stroke-linecap:round;stroke-linejoin:round;stroke-miterlimit:1.5;">
    <g transform="matrix(1,0,0,1,-108.83,-114.372)">
        <g transform="matrix(1,0,0,1,-647.784,-4417.43)">
            <g id="road-with-pins" serif:id="road with pins">
                <g id="road">
                    <g transform="matrix(1,0,0,1,647.07,4417.55)">
                        <path d="M173.939,197.768C173.939,197.768 183.085,192.985 186.8,192.66" style="fill:rgb(255,0,0);stroke:rgb(190,190,190);stroke-width:2.18px;"/>
                    </g>
                    <g transform="matrix(1.57021,0.648102,-0.686081,1.66223,714.257,4164.86)">
                        <path d="M173.939,197.768C173.939,197.768 183.085,192.985 186.8,192.66" style="fill:rgb(190,190,190);stroke:rgb(190,190,190);stroke-width:1.25px;"/>
                    </g>
                    <g transform="matrix(1,0,0,1,647.784,4417.43)">
                        <path d="M244.771,193.746C244.771,193.746 259.643,202.361 260.731,203.812" style="fill:none;stroke:rgb(190,190,190);stroke-width:2.18px;"/>
                    </g>
                    <g transform="matrix(1,0,0,1,647.784,4417.43)">
                        <path d="M272.937,212.846L283.563,222.41" style="fill:none;stroke:rgb(190,190,190);stroke-width:2.18px;"/>
                    </g>
                    <g transform="matrix(1,0,0,1,647.784,4417.43)">
                        <path d="M297.62,232.449L313.118,241.858" style="fill:none;stroke:rgb(190,190,190);stroke-width:2.18px;"/>
                    </g>
                    <g transform="matrix(1,0,0,1,647.784,4417.43)">
                        <path d="M327.785,248.777L348.54,259.846" style="fill:none;stroke:rgb(190,190,190);stroke-width:2.18px;"/>
                    </g>
                    <g transform="matrix(1,0,0,1,647.784,4417.43)">
                        <path d="M363.054,265.394L386.716,274.462" style="fill:none;stroke:rgb(190,190,190);stroke-width:2.18px;"/>
                    </g>
                    <g transform="matrix(1,0,0,1,647.784,4417.43)">
                        <path d="M402.869,278.713L421.714,284.239" style="fill:none;stroke:rgb(190,190,190);stroke-width:2.18px;"/>
                    </g>
                    <g transform="matrix(1,0,0,1,647.784,4417.43)">
                        <path d="M439.092,288.915L455.953,291.748" style="fill:none;stroke:rgb(190,190,190);stroke-width:2.18px;"/>
                    </g>
                    <g transform="matrix(1,0,0,1,647.784,4417.43)">
                        <path d="M471.397,294.299L492.934,296.708" style="fill:none;stroke:rgb(190,190,190);stroke-width:2.18px;"/>
                    </g>
                    <g transform="matrix(1,0,0,1,647.784,4417.43)">
                        <path d="M508.905,297.133L530.867,296.708" style="fill:none;stroke:rgb(190,190,190);stroke-width:2.18px;"/>
                    </g>
                    <g transform="matrix(1,0,0,1,647.784,4417.43)">
                        <path d="M547.444,294.299L570.398,287.356" style="fill:none;stroke:rgb(190,190,190);stroke-width:2.18px;"/>
                    </g>
                    <g transform="matrix(1,0,0,1,647.784,4417.43)">
                        <path d="M586.193,281.712L608.11,276.399" style="fill:none;stroke:rgb(190,190,190);stroke-width:2.18px;"/>
                    </g>
                    <g transform="matrix(1,0,0,1,647.784,4417.43)">
                        <path d="M624.272,272.636L649.289,269.979" style="fill:none;stroke:rgb(190,190,190);stroke-width:2.18px;"/>
                    </g>
                    <g transform="matrix(1,0,0,1,647.784,4417.43)">
                        <path d="M667.443,268.208L690.689,268.872" style="fill:none;stroke:rgb(190,190,190);stroke-width:2.18px;"/>
                    </g>
                    <g transform="matrix(1,0,0,1,647.784,4417.43)">
                        <path d="M708.367,269.757L723.643,273.078" style="fill:none;stroke:rgb(190,190,190);stroke-width:2.18px;"/>
                    </g>
                    <g transform="matrix(1,0,0,1,647.784,4417.43)">
                        <path d="M740.026,275.292L756.63,281.491" style="fill:none;stroke:rgb(190,190,190);stroke-width:2.18px;"/>
                    </g>
                    <g transform="matrix(1,0,0,1,647.784,4417.43)">
                        <path d="M770.919,288.523C770.919,288.523 780.259,293.329 781.891,294.78" style="fill:none;stroke:rgb(190,190,190);stroke-width:2.18px;"/>
                    </g>
                    <g transform="matrix(1,0,0,1,647.784,4417.43)">
                        <path d="M795.403,305.027L804.743,314.911" style="fill:none;stroke:rgb(190,190,190);stroke-width:2.18px;"/>
                    </g>
                    <g transform="matrix(1,0,0,1,647.784,4417.43)">
                        <path d="M813.811,327.226L817.801,333.973" style="fill:none;stroke:rgb(190,190,190);stroke-width:2.18px;"/>
                    </g>
                    <g transform="matrix(1,0,0,1,647.784,4417.43)">
                        <path d="M824.04,349.207L827.377,360.96" style="fill:none;stroke:rgb(190,190,190);stroke-width:2.18px;"/>
                    </g>
                    <g transform="matrix(1,0,0,1,647.784,4417.43)">
                        <path d="M829.673,377.516L829.787,398.032" style="fill:none;stroke:rgb(190,190,190);stroke-width:2.18px;"/>
                    </g>
                    <g transform="matrix(1,0,0,1,647.784,4417.43)">
                        <path d="M825.819,415.072C825.819,415.072 825.026,423.913 820.378,431.281" style="fill:none;stroke:rgb(190,190,190);stroke-width:2.18px;"/>
                    </g>
                    <g transform="matrix(1,0,0,1,647.784,4417.43)">
                        <path d="M811.31,446.357C811.31,446.357 806.55,453.838 798.048,461.206" style="fill:none;stroke:rgb(190,190,190);stroke-width:2.18px;"/>
                    </g>
                    <g transform="matrix(1,0,0,1,647.784,4417.43)">
                        <path d="M784.755,471.181L775.687,476.735" style="fill:none;stroke:rgb(190,190,190);stroke-width:2.18px;"/>
                    </g>
                    <g transform="matrix(1,0,0,1,647.784,4417.43)">
                        <path d="M759.251,482.743L745.875,486.257" style="fill:none;stroke:rgb(190,190,190);stroke-width:2.18px;"/>
                    </g>
                    <g transform="matrix(1,0,0,1,647.784,4417.43)">
                        <path d="M728.986,488.75L713.797,488.864" style="fill:none;stroke:rgb(190,190,190);stroke-width:2.18px;"/>
                    </g>
                    <g transform="matrix(1,0,0,1,647.784,4417.43)">
                        <path d="M697.833,487.617L683.891,486.143" style="fill:none;stroke:rgb(190,190,190);stroke-width:2.18px;"/>
                    </g>
                    <g transform="matrix(1,0,0,1,647.784,4417.43)">
                        <path d="M667.228,484.216L652.946,481.156" style="fill:none;stroke:rgb(190,190,190);stroke-width:2.18px;"/>
                    </g>
                    <g transform="matrix(1,0,0,1,647.784,4417.43)">
                        <path d="M636.619,478.662L621.09,475.148" style="fill:none;stroke:rgb(190,190,190);stroke-width:2.18px;"/>
                    </g>
                    <g transform="matrix(1,0,0,1,647.784,4417.43)">
                        <path d="M604.767,471.294L589.805,466.647" style="fill:none;stroke:rgb(190,190,190);stroke-width:2.18px;"/>
                    </g>
                    <g transform="matrix(1,0,0,1,647.784,4417.43)">
                        <path d="M574.615,462.68L553.872,455.878" style="fill:none;stroke:rgb(190,190,190);stroke-width:2.18px;"/>
                    </g>
                    <g transform="matrix(1,0,0,1,647.784,4417.43)">
                        <path d="M538.647,452.062C538.647,452.062 527.736,447.593 515.955,446.896" style="fill:none;stroke:rgb(190,190,190);stroke-width:2.18px;"/>
                    </g>
                    <g transform="matrix(1,0,0,1,647.784,4417.43)">
                        <path d="M501.147,444.361L487.332,443.83" style="fill:none;stroke:rgb(190,190,190);stroke-width:2.18px;"/>
                    </g>
                    <g transform="matrix(1,0,0,1,647.784,4417.43)">
                        <path d="M472.069,443.258L459.374,443.825" style="fill:none;stroke:rgb(190,190,190);stroke-width:2.18px;"/>
                    </g>
                    <g transform="matrix(1,0,0,1,647.784,4417.43)">
                        <path d="M450.986,444.505L436.703,445.185" style="fill:none;stroke:rgb(190,190,190);stroke-width:2.18px;"/>
                    </g>
                    <g transform="matrix(1,0,0,1,647.784,4417.43)">
                        <path d="M420.326,447.565C420.326,447.565 410.238,449.152 405.59,451.419" style="fill:none;stroke:rgb(190,190,190);stroke-width:2.18px;"/>
                    </g>
                    <g transform="matrix(1,0,0,1,647.784,4417.43)">
                        <path d="M390.401,455.273L382.92,459.241" style="fill:none;stroke:rgb(190,190,190);stroke-width:2.18px;"/>
                    </g>
                    <g transform="matrix(1,0,0,1,647.784,4417.43)">
                        <path d="M368.638,466.495L359.116,475.11" style="fill:none;stroke:rgb(190,190,190);stroke-width:2.18px;"/>
                    </g>
                    <g transform="matrix(1,0,0,1,647.784,4417.43)">
                        <path d="M348.666,485.992L342.431,494.606" style="fill:none;stroke:rgb(190,190,190);stroke-width:2.18px;"/>
                    </g>
                    <g transform="matrix(1,0,0,1,647.784,4417.43)">
                        <path d="M333.363,509.324L323.955,532.448" style="fill:none;stroke:rgb(190,190,190);stroke-width:2.18px;"/>
                    </g>
                    <g transform="matrix(1,0,0,1,647.784,4417.43)">
                        <path d="M317.652,551.037C317.652,551.037 318.672,556.478 313.345,566.566" style="fill:none;stroke:rgb(190,190,190);stroke-width:2.18px;"/>
                    </g>
                    <g transform="matrix(1,0,0,1,647.784,4417.43)">
                        <path d="M304.957,583.569C304.957,583.569 299.742,591.277 293.508,596.151" style="fill:none;stroke:rgb(190,190,190);stroke-width:2.18px;"/>
                    </g>
                    <g transform="matrix(1,0,0,1,647.784,4417.43)">
                        <path d="M281.368,606.239C281.368,606.239 270.373,614.514 261.418,617.688" style="fill:none;stroke:rgb(190,190,190);stroke-width:2.18px;"/>
                    </g>
                    <g transform="matrix(1,0,0,1,647.784,4417.43)">
                        <path d="M247.363,623.582L232.514,628.683" style="fill:none;stroke:rgb(190,190,190);stroke-width:2.18px;"/>
                    </g>
                    <g transform="matrix(1,0,0,1,647.784,4417.43)">
                        <path d="M218.47,633.217L199.653,638.771" style="fill:none;stroke:rgb(190,190,190);stroke-width:2.18px;"/>
                    </g>
                    <g transform="matrix(1,0,0,1,647.784,4417.43)">
                        <path d="M185.031,642.739L162.701,649.653" style="fill:none;stroke:rgb(190,190,190);stroke-width:2.18px;"/>
                    </g>
                    <g transform="matrix(1,0,0,1,647.784,4417.43)">
                        <path d="M148.884,654.864C148.884,654.864 135.14,661.949 131.314,665.349" style="fill:none;stroke:rgb(190,190,190);stroke-width:2.18px;"/>
                    </g>
                    <g transform="matrix(1,0,0,1,647.784,4417.43)">
                        <path d="M118.704,677.535C118.704,677.535 111.619,683.663 109.919,701.48" style="fill:none;stroke:rgb(190,190,190);stroke-width:2.18px;"/>
                    </g>
                    <g transform="matrix(1,0,0,1,647.784,4417.43)">
                        <path d="M111.761,718.022C111.761,718.022 111.903,723.831 122.529,733.324" style="fill:none;stroke:rgb(190,190,190);stroke-width:2.18px;"/>
                    </g>
                    <g transform="matrix(1,0,0,1,647.784,4417.43)">
                        <path d="M134.006,741.684C135.565,742.534 144.916,749.052 151.151,750.185" style="fill:none;stroke:rgb(190,190,190);stroke-width:2.18px;"/>
                    </g>
                    <g transform="matrix(1,0,0,1,647.784,4417.43)">
                        <path d="M166.311,754.152L182.606,755.853" style="fill:none;stroke:rgb(190,190,190);stroke-width:2.18px;"/>
                    </g>
                    <g transform="matrix(1,0,0,1,647.784,4417.43)">
                        <path d="M198.541,756.845L212.001,756.561" style="fill:none;stroke:rgb(190,190,190);stroke-width:2.18px;"/>
                    </g>
                    <g transform="matrix(1,0,0,1,647.784,4417.43)">
                        <path d="M228.012,755.144C228.012,755.144 241.331,754.294 244.59,753.444" style="fill:none;stroke:rgb(190,190,190);stroke-width:2.18px;"/>
                    </g>
                    <g transform="matrix(1,0,0,1,647.784,4417.43)">
                        <path d="M262.048,749.76L277.351,747.351" style="fill:none;stroke:rgb(190,190,190);stroke-width:2.18px;"/>
                    </g>
                    <g transform="matrix(1,0,0,1,647.784,4417.43)">
                        <path d="M293.078,742.676L303.422,739.7" style="fill:none;stroke:rgb(190,190,190);stroke-width:2.18px;"/>
                    </g>
                    <g transform="matrix(1.0628,0,0,1.0628,921.454,4635.73)">
                        <circle cx="174.166" cy="211.429" r="9.409" style="fill:rgb(190,190,190);"/>
                    </g>
                    <g transform="matrix(1.0628,0,0,1.0628,629.675,4397.79)">
                        <circle cx="174.166" cy="211.429" r="9.409" style="fill:rgb(190,190,190);"/>
                    </g>
                    <g transform="matrix(1.0628,0,0,1.0628,772.357,4930.23)">
                        <circle cx="174.166" cy="211.429" r="9.409" style="fill:rgb(190,190,190);"/>
                    </g>
                </g>
                <g transform="matrix(0.136719,0,0,0.136719,1071.56,4769.74)">
                    <path d="M256,0C153.755,0 70.573,83.182 70.573,185.426C70.573,312.314 236.512,498.593 243.577,506.461C250.213,513.852 261.799,513.839 268.423,506.461C275.488,498.593 441.427,312.314 441.427,185.426C441.425,83.182 358.244,0 256,0ZM256,278.719C204.558,278.719 162.708,236.868 162.708,185.426C162.708,133.984 204.559,92.134 256,92.134C307.441,92.134 349.291,133.985 349.291,185.427C349.291,236.869 307.441,278.719 256,278.719Z" style="fill:rgb(39,214,5);fill-rule:nonzero;"/>
                </g>
                <g transform="matrix(0.136719,0,0,0.136719,779.779,4531.8)">
                    <path d="M256,0C153.755,0 70.573,83.182 70.573,185.426C70.573,312.314 236.512,498.593 243.577,506.461C250.213,513.852 261.799,513.839 268.423,506.461C275.488,498.593 441.427,312.314 441.427,185.426C441.425,83.182 358.244,0 256,0ZM256,278.719C204.558,278.719 162.708,236.868 162.708,185.426C162.708,133.984 204.559,92.134 256,92.134C307.441,92.134 349.291,133.985 349.291,185.427C349.291,236.869 307.441,278.719 256,278.719Z" style="fill:rgb(67,168,246);fill-rule:nonzero;"/>
                </g>
                <g transform="matrix(0.136719,0,0,0.136719,922.461,5064.25)">
                    <path d="M256,0C153.755,0 70.573,83.182 70.573,185.426C70.573,312.314 236.512,498.593 243.577,506.461C250.213,513.852 261.799,513.839 268.423,506.461C275.488,498.593 441.427,312.314 441.427,185.426C441.425,83.182 358.244,0 256,0ZM256,278.719C204.558,278.719 162.708,236.868 162.708,185.426C162.708,133.984 204.559,92.134 256,92.134C307.441,92.134 349.291,133.985 349.291,185.427C349.291,236.869 307.441,278.719 256,278.719Z" style="fill:rgb(214,5,5);fill-rule:nonzero;"/>
                </g>
            </g>
        </g>
    </g>
</svg>
