<?xml version="1.0" encoding="UTF-8" standalone="no"?>
<!DOCTYPE svg PUBLIC "-//W3C//DTD SVG 1.1//EN" "http://www.w3.org/Graphics/SVG/1.1/DTD/svg11.dtd">
<svg width="100%" height="100%" viewBox="0 0 807 163" version="1.1" xmlns="http://www.w3.org/2000/svg" xmlns:xlink="http://www.w3.org/1999/xlink" xml:space="preserve" xmlns:serif="http://www.serif.com/" style="fill-rule:evenodd;clip-rule:evenodd;stroke-linejoin:round;stroke-miterlimit:2;">
    <g transform="matrix(1,0,0,1,-557.988,-260.986)">
        <g id="маштабной-осенней-распродажи" serif:id="маштабной осенней распродажи">
            <path id="маштабной-осенней-распродажи1" serif:id="маштабной осенней распродажи" d="M1026.91,389.857L1031.55,389.857L1030.26,407.986L1020.63,407.986L1020.63,399.8L998.797,399.8L998.034,407.986L987.821,407.986L987.821,389.857L991.46,389.857C994.218,382.43 995.627,375.296 995.627,359.915L995.627,358.862L1026.91,358.862L1026.91,389.857ZM963.927,400.618C976.605,400.618 986.114,391.085 986.114,379.33C986.114,367.459 976.722,358.043 964.044,358.043C951.366,358.043 941.858,367.576 941.858,379.33C941.858,391.202 951.249,400.618 963.927,400.618ZM836.607,400.618C845.705,400.618 850.929,396.699 854.803,391.378L846.233,385.296C843.768,388.278 841.244,390.267 836.96,390.267C831.207,390.267 827.157,385.472 827.157,379.33C827.157,373.249 831.207,368.394 836.96,368.394C840.892,368.394 843.651,370.208 845.998,373.132L854.333,366.699C850.694,361.67 845.47,358.043 837.077,358.043C824.634,358.043 815.419,367.4 815.419,379.33C815.419,391.67 824.868,400.618 836.607,400.618ZM815.179,399.8C811.11,399.8 806.638,401.563 802.971,399.8C793.154,395.079 794.26,388.546 784.13,392.489C776.188,395.58 777.764,399.8 769.221,399.8L786.712,358.57L797.688,358.57L815.179,399.8ZM1143.78,399.8L1130.28,399.8C1124.27,389.92 1124.5,380.171 1116.96,388.922L1105.57,399.8C1105.57,391.46 1107.07,390.661 1101.64,384.36L1078.75,399.8C1083.8,391.904 1088.84,384.009 1093.89,376.114L1079.28,358.862L1092.6,358.862L1105.57,375.471L1105.57,358.862L1116.96,358.862L1116.96,375.471L1129.93,358.862L1143.25,358.862L1128.64,376.114L1143.78,399.8ZM903.762,368.156L903.762,358.862L921.37,358.862C931.759,358.862 938.45,364.184 938.45,373.366C938.45,383.015 930.996,388.103 920.783,388.103L915.149,388.103L915.149,399.8L903.762,399.8L903.762,379.344L916.625,379.344L916.625,379.213L920.548,379.213C924.598,379.213 927.064,377.109 927.064,373.775C927.064,370.266 924.598,368.394 920.49,368.394L916.625,368.394L916.625,368.156L903.762,368.156ZM1157.7,399.8L1147.07,399.8L1147.07,358.862L1158.34,358.862L1158.34,381.903L1174.25,358.862L1184.87,358.862L1184.87,399.8L1173.6,399.8L1173.6,376.757L1157.7,399.8ZM737.112,368.156L737.112,358.862L754.72,358.862C765.109,358.862 771.8,364.184 771.8,373.366C771.8,383.015 764.346,388.103 754.133,388.103L748.499,388.103L748.499,399.8L737.112,399.8L737.112,379.344L750.031,379.344L750.031,379.213L753.899,379.213C757.949,379.213 760.414,377.109 760.414,373.775C760.414,370.266 757.949,368.394 753.84,368.394L750.031,368.394L750.031,368.156L737.112,368.156ZM1078.74,399.8L1066.53,399.8L1063.54,392.489L1047.69,392.489L1044.76,399.8L1032.79,399.8C1044.67,371.783 1035.35,358.57 1061.25,358.57L1078.74,399.8ZM896.48,399.8L885.093,399.8L885.093,368.804L871.065,368.804L871.065,399.8L859.678,399.8L859.678,358.862L896.48,358.862L896.48,399.8ZM964.044,390.384C957.823,390.384 953.538,385.237 953.538,379.33C953.538,373.306 957.705,368.277 963.927,368.277C970.207,368.277 974.492,373.424 974.492,379.33C974.492,385.354 970.325,390.384 964.044,390.384ZM1015.52,368.804L1006.6,368.804L1006.6,369.213C1006.6,378.278 1005.25,384.243 1003.38,389.857L1015.52,389.857L1015.52,368.804ZM1055.67,372.02C1054.13,375.9 1052.58,379.779 1051.04,383.659L1060.25,383.659L1055.67,372.02ZM792.112,372.02C790.566,375.9 789.021,379.779 787.475,383.659L796.69,383.659L792.112,372.02ZM962.461,330.433C975.139,330.433 984.647,320.9 984.647,309.145C984.647,297.274 975.256,287.859 962.578,287.859C949.9,287.859 940.392,297.391 940.392,309.145C940.392,321.017 949.783,330.433 962.461,330.433ZM1120.48,330.433C1129.58,330.433 1134.8,326.514 1138.68,321.193L1130.11,315.111C1127.64,318.094 1125.12,320.082 1120.83,320.082C1115.08,320.082 1111.03,315.286 1111.03,309.145C1111.03,303.063 1115.08,298.21 1120.83,298.21C1124.77,298.21 1127.52,300.023 1129.87,302.946L1138.21,296.514C1134.57,291.485 1129.34,287.859 1120.95,287.859C1108.51,287.859 1099.29,297.215 1099.29,309.145C1099.29,321.485 1108.74,330.433 1120.48,330.433ZM1072.58,330.433C1085.26,330.433 1094.77,320.9 1094.77,309.145C1094.77,297.274 1085.38,287.859 1072.7,287.859C1060.02,287.859 1050.51,297.391 1050.51,309.145C1050.51,321.017 1059.9,330.433 1072.58,330.433ZM688.039,330.433C697.137,330.433 702.36,326.514 706.234,321.193L697.665,315.111C695.2,318.094 692.676,320.082 688.391,320.082C682.639,320.082 678.589,315.286 678.589,309.145C678.589,303.063 682.639,298.21 688.391,298.21C692.324,298.21 695.082,300.023 697.43,302.946L705.765,296.514C702.126,291.485 696.902,287.859 688.508,287.859C676.065,287.859 666.85,297.215 666.85,309.145C666.85,321.485 676.3,330.433 688.039,330.433ZM852.044,329.614C847.975,329.614 843.503,331.378 839.836,329.614C830.019,324.894 831.125,318.361 820.995,322.304C813.053,325.395 814.629,329.614 806.086,329.614L823.577,288.385L834.553,288.385L852.044,329.614ZM666.611,329.614L654.402,329.614L651.409,322.304L635.561,322.304L632.627,329.614L620.653,329.614C632.538,301.598 623.215,288.385 649.12,288.385L666.611,329.614ZM889.085,298.327L867.427,298.327L867.427,303.063L875.351,303.063C884.859,303.063 891.844,307.391 891.844,316.222C891.844,324.702 885.622,329.614 875.937,329.614L856.04,329.614L856.04,319.999L867.427,319.999L867.427,320.082L875.057,320.082C878.461,320.082 880.457,318.561 880.457,315.754C880.457,313.239 878.461,311.602 875.116,311.602L870.872,311.49L870.872,311.398L856.04,311.398L856.04,288.677L889.085,288.677L889.085,298.327ZM1321.82,329.614L1311.2,329.614L1311.2,288.677L1322.47,288.677L1322.47,311.719L1338.37,288.677L1349,288.677L1349,329.614L1337.73,329.614L1337.73,306.572L1321.82,329.614ZM1194.09,329.614L1182.7,329.614L1182.7,288.677L1194.09,288.677L1194.09,303.999L1208.71,303.999L1208.71,288.677L1220.09,288.677L1220.09,329.614L1208.71,329.614L1208.71,314.058L1194.09,314.058L1194.09,329.614ZM584.14,329.614L572.988,329.614L572.988,288.677L585.02,288.677L594.822,304.525L604.624,288.677L616.657,288.677L616.657,329.614L605.329,329.614L605.329,306.104L594.588,322.129C591.105,316.826 587.623,311.524 584.14,306.222L584.14,329.614ZM1001.2,329.614L990.58,329.614L990.58,288.677L1001.85,288.677L1001.85,311.719L1017.76,288.677L1028.38,288.677L1028.38,329.614L1017.11,329.614L1017.11,306.572L1001.2,329.614ZM1238.76,329.614L1227.38,329.614L1227.38,288.677L1238.76,288.677L1238.76,303.999L1253.38,303.999L1253.38,288.677L1264.76,288.677L1264.76,329.614L1253.38,329.614L1253.38,314.058L1238.76,314.058L1238.76,329.614ZM1176.6,298.327L1154.82,298.327L1154.82,304.525L1174.54,304.525L1174.54,313.473L1154.82,313.473L1154.82,319.964L1176.89,319.964L1176.89,329.614L1143.55,329.614L1143.55,288.677L1176.6,288.677L1176.6,298.327ZM1305.09,298.327L1283.31,298.327L1283.31,304.525L1303.04,304.525L1303.04,313.473L1283.31,313.473L1283.31,319.964L1305.38,319.964L1305.38,329.614L1272.05,329.614L1272.05,288.677L1305.09,288.677L1305.09,298.327ZM768.631,329.614L711.11,329.614L711.11,288.677L722.497,288.677L722.497,319.673L734.177,319.673L734.177,288.677L745.564,288.677L745.564,319.673L757.244,319.673L757.244,288.677L768.631,288.677L768.631,329.614ZM809.664,298.619L797.338,298.619L797.338,329.614L785.951,329.614L785.951,298.619L773.625,298.619L773.625,288.677L809.664,288.677L809.664,298.619ZM908.517,329.614L897.13,329.614L897.13,288.677L908.517,288.677L908.517,303.999L923.132,303.999L923.132,288.677L934.519,288.677L934.519,329.614L923.132,329.614L923.132,314.058L908.517,314.058L908.517,329.614ZM962.578,320.199C956.357,320.199 952.072,315.052 952.072,309.145C952.072,303.122 956.239,298.093 962.461,298.093C968.741,298.093 973.026,303.239 973.026,309.145C973.026,315.169 968.859,320.199 962.578,320.199ZM1072.7,320.199C1066.48,320.199 1062.19,315.052 1062.19,309.145C1062.19,303.122 1066.36,298.093 1072.58,298.093C1078.86,298.093 1083.15,303.239 1083.15,309.145C1083.15,315.169 1078.98,320.199 1072.7,320.199ZM643.544,301.836C641.998,305.715 640.453,309.594 638.907,313.473L648.122,313.473L643.544,301.836ZM828.977,301.836C827.432,305.715 825.886,309.594 824.34,313.473L833.555,313.473L828.977,301.836ZM1330.45,286.045C1336.14,286.045 1339.96,282.771 1340.84,277.098L1334.62,275.986C1333.85,278.092 1332.68,279.496 1330.45,279.496C1328.28,279.496 1327.1,278.092 1326.34,275.986L1320.12,277.098C1321,282.771 1324.82,286.045 1330.45,286.045ZM1009.83,286.045C1015.52,286.045 1019.34,282.771 1020.22,277.098L1014,275.986C1013.24,278.092 1012.06,279.496 1009.83,279.496C1007.66,279.496 1006.49,278.092 1005.72,275.986L999.502,277.098C1000.38,282.771 1004.2,286.045 1009.83,286.045Z" style="fill:white;"/>
        </g>
        <path id="маштабной-осенней-распродажи2" serif:id="маштабной осенней распродажи" d="M1026.91,389.857L1031.55,389.857L1030.26,407.986L1020.63,407.986L1020.63,399.8L998.797,399.8L998.034,407.986L987.821,407.986L987.821,389.857L991.46,389.857C994.218,382.43 995.627,375.296 995.627,359.915L995.627,358.862L1026.91,358.862L1026.91,389.857ZM963.927,400.618C976.605,400.618 986.114,391.085 986.114,379.33C986.114,367.459 976.722,358.043 964.044,358.043C951.366,358.043 941.858,367.576 941.858,379.33C941.858,391.202 951.249,400.618 963.927,400.618ZM836.607,400.618C845.705,400.618 850.929,396.699 854.803,391.378L846.233,385.296C843.768,388.278 841.244,390.267 836.96,390.267C831.207,390.267 827.157,385.472 827.157,379.33C827.157,373.249 831.207,368.394 836.96,368.394C840.892,368.394 843.651,370.208 845.998,373.132L854.333,366.699C850.694,361.67 845.47,358.043 837.077,358.043C824.634,358.043 815.419,367.4 815.419,379.33C815.419,391.67 824.868,400.618 836.607,400.618ZM815.179,399.8C811.11,399.8 806.638,401.563 802.971,399.8C793.154,395.079 794.26,388.546 784.13,392.489C776.188,395.58 777.764,399.8 769.221,399.8L786.712,358.57L797.688,358.57L815.179,399.8ZM1143.78,399.8L1130.28,399.8C1124.27,389.92 1124.5,380.171 1116.96,388.922L1105.57,399.8C1105.57,391.46 1107.07,390.661 1101.64,384.36L1078.75,399.8C1083.8,391.904 1088.84,384.009 1093.89,376.114L1079.28,358.862L1092.6,358.862L1105.57,375.471L1105.57,358.862L1116.96,358.862L1116.96,375.471L1129.93,358.862L1143.25,358.862L1128.64,376.114L1143.78,399.8ZM903.762,368.156L903.762,358.862L921.37,358.862C931.759,358.862 938.45,364.184 938.45,373.366C938.45,383.015 930.996,388.103 920.783,388.103L915.149,388.103L915.149,399.8L903.762,399.8L903.762,379.344L916.625,379.344L916.625,379.213L920.548,379.213C924.598,379.213 927.064,377.109 927.064,373.775C927.064,370.266 924.598,368.394 920.49,368.394L916.625,368.394L916.625,368.156L903.762,368.156ZM1157.7,399.8L1147.07,399.8L1147.07,358.862L1158.34,358.862L1158.34,381.903L1174.25,358.862L1184.87,358.862L1184.87,399.8L1173.6,399.8L1173.6,376.757L1157.7,399.8ZM737.112,368.156L737.112,358.862L754.72,358.862C765.109,358.862 771.8,364.184 771.8,373.366C771.8,383.015 764.346,388.103 754.133,388.103L748.499,388.103L748.499,399.8L737.112,399.8L737.112,379.344L750.031,379.344L750.031,379.213L753.899,379.213C757.949,379.213 760.414,377.109 760.414,373.775C760.414,370.266 757.949,368.394 753.84,368.394L750.031,368.394L750.031,368.156L737.112,368.156ZM1078.74,399.8L1066.53,399.8L1063.54,392.489L1047.69,392.489L1044.76,399.8L1032.79,399.8C1044.67,371.783 1035.35,358.57 1061.25,358.57L1078.74,399.8ZM896.48,399.8L885.093,399.8L885.093,368.804L871.065,368.804L871.065,399.8L859.678,399.8L859.678,358.862L896.48,358.862L896.48,399.8ZM964.044,390.384C957.823,390.384 953.538,385.237 953.538,379.33C953.538,373.306 957.705,368.277 963.927,368.277C970.207,368.277 974.492,373.424 974.492,379.33C974.492,385.354 970.325,390.384 964.044,390.384ZM1015.52,368.804L1006.6,368.804L1006.6,369.213C1006.6,378.278 1005.25,384.243 1003.38,389.857L1015.52,389.857L1015.52,368.804ZM1055.67,372.02C1054.13,375.9 1052.58,379.779 1051.04,383.659L1060.25,383.659L1055.67,372.02ZM792.112,372.02C790.566,375.9 789.021,379.779 787.475,383.659L796.69,383.659L792.112,372.02ZM962.461,330.433C975.139,330.433 984.647,320.9 984.647,309.145C984.647,297.274 975.256,287.859 962.578,287.859C949.9,287.859 940.392,297.391 940.392,309.145C940.392,321.017 949.783,330.433 962.461,330.433ZM1120.48,330.433C1129.58,330.433 1134.8,326.514 1138.68,321.193L1130.11,315.111C1127.64,318.094 1125.12,320.082 1120.83,320.082C1115.08,320.082 1111.03,315.286 1111.03,309.145C1111.03,303.063 1115.08,298.21 1120.83,298.21C1124.77,298.21 1127.52,300.023 1129.87,302.946L1138.21,296.514C1134.57,291.485 1129.34,287.859 1120.95,287.859C1108.51,287.859 1099.29,297.215 1099.29,309.145C1099.29,321.485 1108.74,330.433 1120.48,330.433ZM1072.58,330.433C1085.26,330.433 1094.77,320.9 1094.77,309.145C1094.77,297.274 1085.38,287.859 1072.7,287.859C1060.02,287.859 1050.51,297.391 1050.51,309.145C1050.51,321.017 1059.9,330.433 1072.58,330.433ZM688.039,330.433C697.137,330.433 702.36,326.514 706.234,321.193L697.665,315.111C695.2,318.094 692.676,320.082 688.391,320.082C682.639,320.082 678.589,315.286 678.589,309.145C678.589,303.063 682.639,298.21 688.391,298.21C692.324,298.21 695.082,300.023 697.43,302.946L705.765,296.514C702.126,291.485 696.902,287.859 688.508,287.859C676.065,287.859 666.85,297.215 666.85,309.145C666.85,321.485 676.3,330.433 688.039,330.433ZM852.044,329.614C847.975,329.614 843.503,331.378 839.836,329.614C830.019,324.894 831.125,318.361 820.995,322.304C813.053,325.395 814.629,329.614 806.086,329.614L823.577,288.385L834.553,288.385L852.044,329.614ZM666.611,329.614L654.402,329.614L651.409,322.304L635.561,322.304L632.627,329.614L620.653,329.614C632.538,301.598 623.215,288.385 649.12,288.385L666.611,329.614ZM889.085,298.327L867.427,298.327L867.427,303.063L875.351,303.063C884.859,303.063 891.844,307.391 891.844,316.222C891.844,324.702 885.622,329.614 875.937,329.614L856.04,329.614L856.04,319.999L867.427,319.999L867.427,320.082L875.057,320.082C878.461,320.082 880.457,318.561 880.457,315.754C880.457,313.239 878.461,311.602 875.116,311.602L870.872,311.49L870.872,311.398L856.04,311.398L856.04,288.677L889.085,288.677L889.085,298.327ZM1321.82,329.614L1311.2,329.614L1311.2,288.677L1322.47,288.677L1322.47,311.719L1338.37,288.677L1349,288.677L1349,329.614L1337.73,329.614L1337.73,306.572L1321.82,329.614ZM1194.09,329.614L1182.7,329.614L1182.7,288.677L1194.09,288.677L1194.09,303.999L1208.71,303.999L1208.71,288.677L1220.09,288.677L1220.09,329.614L1208.71,329.614L1208.71,314.058L1194.09,314.058L1194.09,329.614ZM584.14,329.614L572.988,329.614L572.988,288.677L585.02,288.677L594.822,304.525L604.624,288.677L616.657,288.677L616.657,329.614L605.329,329.614L605.329,306.104L594.588,322.129C591.105,316.826 587.623,311.524 584.14,306.222L584.14,329.614ZM1001.2,329.614L990.58,329.614L990.58,288.677L1001.85,288.677L1001.85,311.719L1017.76,288.677L1028.38,288.677L1028.38,329.614L1017.11,329.614L1017.11,306.572L1001.2,329.614ZM1238.76,329.614L1227.38,329.614L1227.38,288.677L1238.76,288.677L1238.76,303.999L1253.38,303.999L1253.38,288.677L1264.76,288.677L1264.76,329.614L1253.38,329.614L1253.38,314.058L1238.76,314.058L1238.76,329.614ZM1176.6,298.327L1154.82,298.327L1154.82,304.525L1174.54,304.525L1174.54,313.473L1154.82,313.473L1154.82,319.964L1176.89,319.964L1176.89,329.614L1143.55,329.614L1143.55,288.677L1176.6,288.677L1176.6,298.327ZM1305.09,298.327L1283.31,298.327L1283.31,304.525L1303.04,304.525L1303.04,313.473L1283.31,313.473L1283.31,319.964L1305.38,319.964L1305.38,329.614L1272.05,329.614L1272.05,288.677L1305.09,288.677L1305.09,298.327ZM768.631,329.614L711.11,329.614L711.11,288.677L722.497,288.677L722.497,319.673L734.177,319.673L734.177,288.677L745.564,288.677L745.564,319.673L757.244,319.673L757.244,288.677L768.631,288.677L768.631,329.614ZM809.664,298.619L797.338,298.619L797.338,329.614L785.951,329.614L785.951,298.619L773.625,298.619L773.625,288.677L809.664,288.677L809.664,298.619ZM908.517,329.614L897.13,329.614L897.13,288.677L908.517,288.677L908.517,303.999L923.132,303.999L923.132,288.677L934.519,288.677L934.519,329.614L923.132,329.614L923.132,314.058L908.517,314.058L908.517,329.614ZM962.578,320.199C956.357,320.199 952.072,315.052 952.072,309.145C952.072,303.122 956.239,298.093 962.461,298.093C968.741,298.093 973.026,303.239 973.026,309.145C973.026,315.169 968.859,320.199 962.578,320.199ZM1072.7,320.199C1066.48,320.199 1062.19,315.052 1062.19,309.145C1062.19,303.122 1066.36,298.093 1072.58,298.093C1078.86,298.093 1083.15,303.239 1083.15,309.145C1083.15,315.169 1078.98,320.199 1072.7,320.199ZM643.544,301.836C641.998,305.715 640.453,309.594 638.907,313.473L648.122,313.473L643.544,301.836ZM828.977,301.836C827.432,305.715 825.886,309.594 824.34,313.473L833.555,313.473L828.977,301.836ZM1330.45,286.045C1336.14,286.045 1339.96,282.771 1340.84,277.098L1334.62,275.986C1333.85,278.092 1332.68,279.496 1330.45,279.496C1328.28,279.496 1327.1,278.092 1326.34,275.986L1320.12,277.098C1321,282.771 1324.82,286.045 1330.45,286.045ZM1009.83,286.045C1015.52,286.045 1019.34,282.771 1020.22,277.098L1014,275.986C1013.24,278.092 1012.06,279.496 1009.83,279.496C1007.66,279.496 1006.49,278.092 1005.72,275.986L999.502,277.098C1000.38,282.771 1004.2,286.045 1009.83,286.045Z" style="fill:white;"/>
    </g>
</svg>
